G04 ================== begin FILE IDENTIFICATION RECORD ==================*
G04 Layout Name:  USBAUDIO_TEST_V10A.brd*
G04 Film Name:    BOTTOM*
G04 File Format:  Gerber RS274X*
G04 File Origin:  Cadence Allegro 16.6-2015-S088*
G04 Origin Date:  Thu Aug 31 10:09:24 2017*
G04 *
G04 Layer:  BOARD GEOMETRY/OUTLINE*
G04 Layer:  ETCH/BOTTOM*
G04 Layer:  PIN/BOTTOM*
G04 Layer:  VIA CLASS/BOTTOM*
G04 *
G04 Offset:    (0.0000 0.0000)*
G04 Mirror:    No*
G04 Mode:      Positive*
G04 Rotation:  0*
G04 FullContactRelief:  No*
G04 UndefLineWidth:     0.1524*
G04 ================== end FILE IDENTIFICATION RECORD ====================*
%FSLAX55Y55*MOMM*%
%IR0*IPPOS*OFA0.00000B0.00000*MIA0B0*SFA1.00000B1.00000*%
%ADD17R,1.4X.4*%
%ADD16R,.4X1.4*%
%ADD11C,.6096*%
%ADD10C,3.3*%
%ADD13C,1.6*%
%ADD19R,2.54X3.048*%
%ADD14R,1.6X1.6*%
%ADD18R,.9144X.9144*%
%ADD12R,.9144X.9144*%
%ADD15R,1.1938X1.1938*%
%ADD20C,.2032*%
%ADD21C,.7112*%
%ADD22C,.254*%
%ADD23C,.1524*%
%ADD24C,.508*%
%ADD25C,.762*%
%ADD26C,1.4146*%
G75*
%LPD*%
G75*
G36*
G01X250000Y49500D02*
Y31170D01*
G02X227890Y10930I-20320J1D01*
G02X10000Y250000I21111J238069D01*
G01Y1470000D01*
G02X227890Y1709070I239001J1001D01*
G02X250000Y1688830I1790J-20241D01*
G01Y1670500D01*
G03Y1249500I10000J-210500D01*
G01Y1166520D01*
X241890Y1164850D01*
G03X188440Y1045340I16268J-78983D01*
G01X189820Y1042980D01*
Y1020000D01*
X160000D01*
Y700000D01*
X189820D01*
Y674800D01*
X188650Y672580D01*
G03X242100Y556370I71349J-37580D01*
G01X250000Y554570D01*
Y470500D01*
G03Y49500I10000J-210500D01*
G37*
G36*
G01X360000Y10000D02*
Y68750D01*
G03X456000Y350350I-99999J191254D01*
G02X474450Y379180I18451J8511D01*
G01X589440D01*
X655510Y313110D01*
Y259650D01*
X854260D01*
Y181050D01*
X931050Y104260D01*
X1215740D01*
Y349340D01*
X1336640D01*
Y333430D01*
X1329340Y324460D01*
Y129340D01*
X1736640D01*
Y107900D01*
X1799850Y44690D01*
G02X1785480Y10000I-14367J-14370D01*
G01X360000D01*
G37*
G36*
G01X3890000Y300000D02*
G02X3600000Y10000I-288333J-1667D01*
G01X2514520D01*
G02X2500150Y44690I-3J20320D01*
G01X2544370Y88910D01*
X2547910Y89300D01*
G03X2489440Y210050I-7912J70700D01*
G02X2460560I-14440J14292D01*
G03X2374470Y221630I-50556J-50050D01*
G01X2367720Y217740D01*
X2292100Y293360D01*
X2047970D01*
X2025510Y314090D01*
G02X2039300Y349340I13785J14930D01*
G01X2230660D01*
Y660540D01*
G02X2255210Y680420I20322J3D01*
G03X2294750Y683310I14790J69582D01*
G01X2296460Y683940D01*
X2323620D01*
Y542680D01*
X2343670Y520000D01*
X2323620Y497320D01*
Y349820D01*
X2496380D01*
Y497320D01*
X2476330Y520000D01*
X2496380Y542680D01*
Y690140D01*
X2559440D01*
Y306940D01*
X2657740D01*
Y275150D01*
X2637420Y250170D01*
Y103620D01*
X2810180D01*
Y250170D01*
X2789860Y275150D01*
Y306940D01*
X2894760D01*
Y693060D01*
X2793160D01*
Y720260D01*
X2691160Y822260D01*
X2495150D01*
X2480420Y834240D01*
G02Y865760I12828J15760D01*
G01X2495150Y877740D01*
X2691160D01*
X2793160Y979740D01*
Y1016940D01*
X2894760D01*
Y1403060D01*
X2779860D01*
Y1434850D01*
X2800180Y1459830D01*
Y1606380D01*
X2627420D01*
Y1459830D01*
X2647740Y1434850D01*
Y1403060D01*
X2559440D01*
Y1009860D01*
X2496380D01*
Y1157320D01*
X2476330Y1180000D01*
X2496380Y1202680D01*
Y1350180D01*
X2346380D01*
Y1431940D01*
X2383230Y1463940D01*
X2413540D01*
X2415250Y1463310D01*
G03Y1596690I24750J66690D01*
G01X2413540Y1596060D01*
X2266440D01*
X2257000Y1586630D01*
X2173620Y1579060D01*
Y1430180D01*
X2046380D01*
Y1572340D01*
X1942560Y1602900D01*
X1902100Y1643360D01*
X1697900D01*
X1665630Y1611090D01*
X1662090Y1610700D01*
G03X1741000Y1535540I7910J-70699D01*
G01X1742100Y1536640D01*
X1857900D01*
X1863620Y1530920D01*
X1873030Y1452930D01*
G02X1852860Y1430180I-20174J-2430D01*
G01X1703620D01*
Y1370900D01*
G02X1668930Y1356530I-20320J-3D01*
G01X1502100Y1523360D01*
X697050D01*
G03X589140Y1433170I-47046J-53361D01*
G03X697050Y1342980I60864J-36829D01*
G01X931230D01*
G02X938410Y1325640I-4J-10158D01*
G01X929160Y1316380D01*
X849820D01*
Y1166380D01*
X697420D01*
Y1018600D01*
X709740Y1005000D01*
X697420Y991400D01*
Y978120D01*
X692900Y973600D01*
G02X658560Y984210I-14370J14366D01*
G03X599540Y1070810I-128562J-24206D01*
G02X599160Y1104990I10799J17212D01*
G03X460840I-69160J105010D01*
G02X460460Y1070810I-11179J-16968D01*
G03X437790Y867210I69541J-110805D01*
G02Y852790I-7165J-7210D01*
G03X431050Y674430I92211J-92792D01*
G02X415680Y640820I-15372J-13290D01*
G01X399180D01*
Y464040D01*
G02X368630Y446490I-20319J6D01*
G03X360000Y451250I-108522J-186550D01*
G01Y1268750D01*
G03Y1651250I-100000J191250D01*
G01Y1710000D01*
X3600000D01*
G02X3890000Y1420000I0J-290000D01*
G01Y300000D01*
G37*
G36*
G01X365440Y795310D02*
X321920Y830720D01*
X269850Y785000D01*
X321920Y739280D01*
X365440Y774690D01*
G03Y795310I-23210J10310D01*
G37*
G36*
G01X599840Y840000D02*
X530000D01*
X528200Y758200D01*
X610000Y760000D01*
Y829840D01*
G03X599840Y840000I-10160J0D01*
G37*
G36*
G01X610000Y890160D02*
Y960000D01*
X528200Y961800D01*
X530000Y880000D01*
X599840D01*
G03X610000Y890160I0J10160D01*
G37*
G36*
G01X1150660Y349340D02*
X1170000Y330000D01*
Y150000D01*
X950000D01*
X900000Y200000D01*
Y420000D01*
X1080000D01*
X1109340Y390660D01*
Y349340D01*
X1150660D01*
G37*
G36*
G01X1109340Y465740D02*
X1022580D01*
Y570150D01*
G02X1046700Y590110I20318J1D01*
G03X1082570Y592540I13283J69889D01*
G02X1109340Y573270I6449J-19271D01*
G01Y465740D01*
G37*
G36*
G01X731030Y460350D02*
X660820Y530560D01*
Y640820D01*
X644320D01*
G02X628950Y674430I2J20320D01*
G03X657020Y728680I-98943J85582D01*
G02X691110Y738190I19728J-4862D01*
G01X697420Y731880D01*
Y693620D01*
X969510D01*
G02X989620Y670350I4J-20321D01*
G03X991210Y641880I70381J-10349D01*
G02X971560Y616380I-19650J-5179D01*
G01X849820D01*
Y460350D01*
X731030D01*
G37*
G36*
G01X1077780Y690480D02*
X1060000D01*
X1057750Y657750D01*
X1090480Y660000D01*
Y677780D01*
G03X1077780Y690480I-12700J0D01*
G37*
G36*
G01X712230Y775170D02*
X738090Y748720D01*
X786340Y780000D01*
X738090Y811280D01*
X712230Y784830D01*
G03Y775170I8940J-4830D01*
G37*
G36*
G01X1022580Y1140170D02*
X1010520Y1155000D01*
X1022580Y1169830D01*
Y1213940D01*
X1482640D01*
X1483940Y1212640D01*
Y938540D01*
G02X1449250Y924170I-20320J-2D01*
G01X1337360Y1036060D01*
X1167360D01*
X1125420Y1078000D01*
X1124660Y1079660D01*
G03X1046700Y1119890I-64664J-29657D01*
G02X1022580Y1139850I-3802J19959D01*
G01Y1140170D01*
G37*
G36*
G01X946510Y1140760D02*
X981920Y1184280D01*
X936200Y1236350D01*
X890480Y1184280D01*
X925890Y1140760D01*
G03X946510I10310J23210D01*
G37*
G36*
G01X925890Y1169240D02*
X890480Y1125720D01*
X936200Y1073650D01*
X981920Y1125720D01*
X946510Y1169240D01*
G03X925890I-10310J-23210D01*
G37*
G36*
G01X712230Y925170D02*
X738090Y898720D01*
X786340Y930000D01*
X738090Y961280D01*
X712230Y934830D01*
G03Y925170I8940J-4830D01*
G37*
G36*
G01X777560Y1019290D02*
X738080Y975720D01*
X783800Y927460D01*
X829520Y975720D01*
X790040Y1019290D01*
G03X777560I-6240J-8020D01*
G37*
G36*
G01X790040Y990710D02*
X829520Y1034280D01*
X783800Y1082540D01*
X738080Y1034280D01*
X777560Y990710D01*
G03X790040I6240J8020D01*
G37*
G36*
G01X684120Y1478980D02*
X671540Y1491540D01*
X646820Y1470000D01*
X671540Y1448460D01*
X684120Y1461020D01*
G03Y1478980I-8980J8980D01*
G37*
G36*
G01Y1405320D02*
X671540Y1417880D01*
X646820Y1396340D01*
X671540Y1374800D01*
X684120Y1387360D01*
G03Y1405320I-8980J8980D01*
G37*
G36*
G01X1385650Y329220D02*
X1370000Y310000D01*
X1390000Y236820D01*
X1410000Y310000D01*
X1394350Y329220D01*
G03X1385650I-4350J-11930D01*
G37*
G36*
G01X1465650D02*
X1450000Y310000D01*
X1470000Y236820D01*
X1490000Y310000D01*
X1474350Y329220D01*
G03X1465650I-4350J-11930D01*
G37*
G36*
G01X1625650D02*
X1610000Y310000D01*
X1630000Y236820D01*
X1650000Y310000D01*
X1634350Y329220D01*
G03X1625650I-4350J-11930D01*
G37*
G36*
G01X1523360Y350660D02*
Y397900D01*
X1564370Y438910D01*
X1567910Y439300D01*
G03X1489300Y517910I-7910J70700D01*
G01X1488910Y514370D01*
X1478050Y503510D01*
G02X1443360Y517880I-14370J14367D01*
G01Y562950D01*
G03X1359650Y674340I-53360J47049D01*
G02X1330660Y692720I-8670J18378D01*
G01Y806860D01*
G02X1365350Y821230I20320J2D01*
G01X1562640Y623940D01*
X1697010D01*
G02X1717320Y602820I5J-20321D01*
G03X1735040Y552950I71083J-2826D01*
G01Y520510D01*
X1576640Y362110D01*
Y350660D01*
X1523360D01*
G37*
G36*
G01X1128850Y630660D02*
Y642040D01*
X1129130Y643220D01*
G03X1130700Y652090I-69125J16809D01*
G01X1131090Y655630D01*
X1144800Y669340D01*
X1307280D01*
G02X1325660Y640350I2J-20320D01*
G03X1324170Y636970I64328J-30376D01*
G01X1321590Y630660D01*
X1128850D01*
G37*
G36*
G01X1309220Y654350D02*
X1290000Y670000D01*
X1216820Y650000D01*
X1290000Y630000D01*
X1309220Y645650D01*
G03Y654350I-11930J4350D01*
G37*
G36*
G01X1131050Y805520D02*
X1150000Y790000D01*
X1222540Y810000D01*
X1150000Y830000D01*
X1131050Y814480D01*
G03Y805520I9120J-4480D01*
G37*
G36*
G01X1130780Y725650D02*
X1150000Y710000D01*
X1223180Y730000D01*
X1150000Y750000D01*
X1130780Y734350D01*
G03Y725650I11930J-4350D01*
G37*
G36*
G01X1398980Y575880D02*
X1411540Y588460D01*
X1390000Y613180D01*
X1368460Y588460D01*
X1381020Y575880D01*
G03X1398980I8980J8980D01*
G37*
G36*
G01X1542220Y479520D02*
X1560000D01*
X1562250Y512250D01*
X1529520Y510000D01*
Y492220D01*
G03X1542220Y479520I12700J0D01*
G37*
G36*
G01X1131050Y885520D02*
X1150000Y870000D01*
X1222540Y890000D01*
X1150000Y910000D01*
X1131050Y894480D01*
G03Y885520I9120J-4480D01*
G37*
G36*
G01X1602340Y1028980D02*
X1558980Y1072340D01*
X1546820Y1032700D01*
Y1007300D01*
X1558980Y967660D01*
X1602340Y1011020D01*
G03Y1028980I-8980J8980D01*
G37*
G36*
G01X1625650Y1229220D02*
X1610000Y1210000D01*
X1630000Y1136820D01*
X1650000Y1210000D01*
X1634350Y1229220D01*
G03X1625650I-4350J-11930D01*
G37*
G36*
G01X2037120Y248040D02*
X1970000Y310000D01*
X1946820Y240000D01*
X1970000Y170000D01*
X2037120Y231960D01*
G03Y248040I-9830J8040D01*
G37*
G36*
G01X1874350Y150780D02*
X1890000Y170000D01*
X1870000Y243180D01*
X1850000Y170000D01*
X1865650Y150780D01*
G03X1874350I4350J11930D01*
G37*
G36*
G01X1794350D02*
X1810000Y170000D01*
X1790000Y243180D01*
X1770000Y170000D01*
X1785650Y150780D01*
G03X1794350I4350J11930D01*
G37*
G36*
G01X1705650Y329220D02*
X1690000Y310000D01*
X1710000Y236820D01*
X1730000Y310000D01*
X1714350Y329220D01*
G03X1705650I-4350J-11930D01*
G37*
G36*
G01X1992290Y344760D02*
X1985900Y350660D01*
X1835180D01*
G02X1820810Y385350I-3J20320D01*
G01X1968120Y532660D01*
X1986200D01*
G03X1988390Y532690I121J71142D01*
G02X2009340Y512380I632J-20309D01*
G01Y352230D01*
G02X1992290Y344760I-10160J-4D01*
G37*
G36*
G01X1797380Y565880D02*
X1809940Y578460D01*
X1788400Y603180D01*
X1766860Y578460D01*
X1779420Y565880D01*
G03X1797380I8980J8980D01*
G37*
G36*
G01X1946020Y573320D02*
X1986200D01*
X1989100Y605080D01*
X1963800Y603800D01*
X1946020Y586020D01*
Y573320D01*
G37*
G36*
G01X2056210Y990750D02*
X2073360Y1007900D01*
Y1040010D01*
G02X2097310Y1060000I20319J-2D01*
G03X2178260Y1150030I12689J69999D01*
G03X2187050Y1156640I-38232J59991D01*
G01X2232100D01*
X2288930Y1213470D01*
G02X2323210Y1203140I14367J-14368D01*
G01X2343670Y1180000D01*
X2323620Y1157320D01*
Y1066060D01*
X2296460D01*
X2294750Y1066690D01*
G03X2201270Y981630I-24753J-66694D01*
G02X2181640Y956060I-19629J-5251D01*
G01X2070580D01*
G02X2056210Y990750I-3J20320D01*
G37*
G36*
G01X1889340Y1055540D02*
X1894160Y1049620D01*
X1847900Y1003360D01*
X1843350D01*
G02X1836170Y1020700I4J10158D01*
G01X1843360Y1027900D01*
Y1046570D01*
X1850660Y1055540D01*
Y1224460D01*
X1843360Y1233430D01*
Y1245330D01*
X1860500Y1264720D01*
X1873620Y1259750D01*
Y1257420D01*
X1889340D01*
Y1055540D01*
G37*
G36*
G01X2208950Y974480D02*
X2190000Y990000D01*
X2117460Y970000D01*
X2190000Y950000D01*
X2208950Y965520D01*
G03Y974480I-9120J4480D01*
G37*
G36*
G01X1865650Y1229220D02*
X1850000Y1210000D01*
X1870000Y1136820D01*
X1890000Y1210000D01*
X1874350Y1229220D01*
G03X1865650I-4350J-11930D01*
G37*
G36*
G01X1704120Y878980D02*
X1691540Y891540D01*
X1666820Y870000D01*
X1691540Y848460D01*
X1704120Y861020D01*
G03Y878980I-8980J8980D01*
G37*
G36*
G01X2079520Y1147780D02*
Y1130000D01*
X2112250Y1127750D01*
X2110000Y1160480D01*
X2092220D01*
G03X2079520Y1147780I0J-12700D01*
G37*
G36*
G01X1797430Y1254770D02*
X1835720Y1298080D01*
X1790000Y1346980D01*
X1744280Y1298080D01*
X1782570Y1254770D01*
G03X1797430I7430J10300D01*
G37*
G36*
G01X1785650Y1229220D02*
X1770000Y1210000D01*
X1790000Y1136820D01*
X1810000Y1210000D01*
X1794350Y1229220D01*
G03X1785650I-4350J-11930D01*
G37*
G36*
G01X1794350Y1050780D02*
X1810000Y1070000D01*
X1790000Y1143180D01*
X1770000Y1070000D01*
X1785650Y1050780D01*
G03X1794350I4350J11930D01*
G37*
G36*
G01X2174120Y1218980D02*
X2161540Y1231540D01*
X2136820Y1210000D01*
X2161540Y1188460D01*
X2174120Y1201020D01*
G03Y1218980I-8980J8980D01*
G37*
G36*
G01X1954350Y1050780D02*
X1970000Y1070000D01*
X1950000Y1143180D01*
X1930000Y1070000D01*
X1945650Y1050780D01*
G03X1954350I4350J11930D01*
G37*
G36*
G01X1703240Y958980D02*
X1690660Y971540D01*
X1665940Y950000D01*
X1690660Y928460D01*
X1703240Y941020D01*
G03Y958980I-8980J8980D01*
G37*
G36*
G01X1705650Y1229220D02*
X1690000Y1210000D01*
X1710000Y1136820D01*
X1730000Y1210000D01*
X1714350Y1229220D01*
G03X1705650I-4350J-11930D01*
G37*
G36*
G01X1687780Y1570480D02*
X1670000D01*
X1667750Y1537750D01*
X1700480Y1540000D01*
Y1557780D01*
G03X1687780Y1570480I-12700J0D01*
G37*
G36*
G01X1901580Y1555720D02*
X1914280Y1450480D01*
X1961930Y1493680D01*
X2005720Y1541920D01*
X1916180Y1568280D01*
G03X1901580Y1555720I-1897J-12560D01*
G37*
G36*
G01X2375880Y151020D02*
X2388460Y138460D01*
X2413180Y160000D01*
X2388460Y181540D01*
X2375880Y168980D01*
G03Y151020I8980J-8980D01*
G37*
G36*
G01X2242220Y129520D02*
X2260000D01*
X2262250Y162250D01*
X2229520Y160000D01*
Y142220D01*
G03X2242220Y129520I12700J0D01*
G37*
G36*
G01X2522220D02*
X2540000D01*
X2542250Y162250D01*
X2509520Y160000D01*
Y142220D01*
G03X2522220Y129520I12700J0D01*
G37*
G36*
G01X2316680Y735850D02*
X2364280Y710480D01*
X2416330Y756740D01*
X2364280Y801920D01*
X2315150Y761550D01*
G03X2316680Y735850I22621J-11549D01*
G37*
G36*
G01X2499240Y766510D02*
X2455720Y801920D01*
X2403650Y756200D01*
X2455720Y710480D01*
X2499240Y745890D01*
G03Y766510I-23210J10310D01*
G37*
G36*
G01X2402570Y525230D02*
X2364280Y481920D01*
X2410000Y433020D01*
X2455720Y481920D01*
X2417430Y525230D01*
G03X2402570I-7430J-10300D01*
G37*
G36*
G01X2417430Y514770D02*
X2455720Y558080D01*
X2410000Y606980D01*
X2364280Y558080D01*
X2402570Y514770D01*
G03X2417430I7430J10300D01*
G37*
G36*
G01X2244920Y855080D02*
X2250000Y850000D01*
X2276220Y848740D01*
X2270000Y880480D01*
X2244920D01*
Y855080D01*
G37*
G36*
G01X2267430Y1254770D02*
X2305720Y1298080D01*
X2260000Y1346980D01*
X2214280Y1298080D01*
X2252570Y1254770D01*
G03X2267430I7430J10300D01*
G37*
G36*
G01X2499240Y954110D02*
X2455720Y989520D01*
X2403650Y943800D01*
X2455720Y898080D01*
X2499240Y933490D01*
G03Y954110I-23210J10310D01*
G37*
G36*
G01X2417430Y1174770D02*
X2455720Y1218080D01*
X2410000Y1266980D01*
X2364280Y1218080D01*
X2402570Y1174770D01*
G03X2417430I7430J10300D01*
G37*
G36*
G01X2402570Y1185230D02*
X2364280Y1141920D01*
X2410000Y1093020D01*
X2455720Y1141920D01*
X2417430Y1185230D01*
G03X2402570I-7430J-10300D01*
G37*
G36*
G01X2361900Y1555320D02*
X2214280Y1541920D01*
X2253990Y1494160D01*
X2305720Y1450480D01*
X2380830Y1515710D01*
G03X2361900Y1555320I-20999J14293D01*
G37*
G36*
G01X2724110Y1430760D02*
X2759520Y1474280D01*
X2713800Y1526350D01*
X2668080Y1474280D01*
X2703490Y1430760D01*
G03X2724110I10310J23210D01*
G37*
G36*
G01X2713490Y279240D02*
X2678080Y235720D01*
X2723800Y183650D01*
X2769520Y235720D01*
X2734110Y279240D01*
G03X2713490I-10310J-23210D01*
G37*
%LPC*%
G75*
G36*
G01X3203940Y1077360D02*
X3245240Y1118660D01*
Y1403060D01*
X3330140D01*
Y1434850D01*
X3309820Y1459830D01*
Y1606380D01*
X3482580D01*
Y1459830D01*
X3462260Y1434850D01*
Y1403060D01*
X3580560D01*
Y1016940D01*
X3336060D01*
Y886460D01*
X3336690Y884750D01*
G02X3203310I-66690J-24750D01*
G01X3203940Y886460D01*
Y1077360D01*
G37*
G36*
G01X3116060Y627360D02*
X3177360Y566060D01*
X3245240D01*
Y693060D01*
X3580560D01*
Y306940D01*
X3482260D01*
Y275150D01*
X3502580Y250170D01*
Y103620D01*
X3329820D01*
Y250170D01*
X3350140Y275150D01*
Y306940D01*
X3245240D01*
Y433940D01*
X3122640D01*
X2983940Y572640D01*
Y1083540D01*
X2983310Y1085250D01*
G02X3116690I66690J24750D01*
G01X3116060Y1083540D01*
Y627360D01*
G37*
G54D26*
X2870000Y850000D03*
X3470000D03*
%LPD*%
G75*
G36*
G01X3405890Y279240D02*
X3370480Y235720D01*
X3416200Y183650D01*
X3461920Y235720D01*
X3426510Y279240D01*
G03X3405890I-10310J-23210D01*
G37*
G36*
G01X3406510Y1430760D02*
X3441920Y1474280D01*
X3396200Y1526350D01*
X3350480Y1474280D01*
X3385890Y1430760D01*
G03X3406510I10310J23210D01*
G37*
G54D10*
X260000Y260000D03*
Y1460000D03*
G54D20*
G01X530000Y760000D02*
X604680Y834680D01*
X666490D01*
X721170Y780000D01*
X783800D01*
G01X530000Y960000D02*
X614680Y875320D01*
X666490D01*
X721170Y930000D01*
X783800D01*
G01X936200Y780000D02*
X985880Y829680D01*
X1112770D01*
X1132450Y810000D01*
X1220000D01*
G01X936200Y930000D02*
X995880Y870320D01*
X1112770D01*
X1132450Y890000D01*
X1220000D01*
G01X783800Y1080000D02*
Y930000D01*
G01X2000000Y360000D02*
X2040000Y320000D01*
G01X2000000Y360000D02*
Y370000D01*
G01X2510000Y850000D02*
X2370000D01*
X2309040Y910960D01*
X2269040D01*
X2210000Y970000D01*
X2120000D01*
G01X2320000Y1190000D02*
Y1220000D01*
G01D02*
X2331120Y1231120D01*
Y1337320D01*
X2410000Y1416200D01*
G01X2300000Y1210000D02*
X2310000Y1220000D01*
X2320000D01*
G01X2940000Y850000D02*
G03I-70000J0D01*
G01X3540000D02*
G03I-70000J0D01*
G54D11*
X430000Y50000D03*
X540000Y120000D03*
Y220000D03*
Y320000D03*
X530000Y1530000D03*
X450000Y1660000D03*
X1040000Y50000D03*
X840000D03*
X640000D03*
Y220000D03*
X1050000Y180000D03*
Y240000D03*
X1090000Y340000D03*
X1060000Y760000D03*
Y660000D03*
X1070000Y1150000D03*
X1060000Y1050000D03*
X650000Y1396340D03*
X890000Y1660000D03*
X680000D03*
X1090000D03*
X650000Y1470000D03*
X1650000Y50000D03*
X1440000D03*
X1240000D03*
X1390000Y690000D03*
X1550000Y880000D03*
X1390000Y610000D03*
X1560000Y510000D03*
X1260000Y1150000D03*
X1300000Y1660000D03*
X1720000Y520000D03*
X1670000Y870000D03*
X1788400Y600000D03*
X1986200Y603800D03*
X2170000Y1060000D03*
X2110000Y1130000D03*
X2140000Y1210000D03*
X1669120Y950000D03*
X1670000Y1540000D03*
X2620000Y50000D03*
X2410000Y160000D03*
X2260000D03*
X2540000D03*
X2270000Y540000D03*
Y640000D03*
X2580000Y850000D03*
X2270000D03*
Y750000D03*
X2530000Y1250000D03*
X2270000Y1000000D03*
X2530000Y1420000D03*
X2540000Y1660000D03*
X2310000D03*
X2440000Y1530000D03*
X3110000Y50000D03*
X2860000D03*
X3170000Y730000D03*
X2940000Y650000D03*
X2730000Y850000D03*
X3170000Y980000D03*
X2940000D03*
X3050000Y1110000D03*
X3040000Y1660000D03*
X2810000D03*
X3660000Y280000D03*
X3620000Y50000D03*
X3350000D03*
X3660000Y730000D03*
Y510000D03*
X3270000Y860000D03*
X3660000Y1410000D03*
Y1180000D03*
Y960000D03*
X3260000Y1660000D03*
X3490000D03*
X3690000Y1610000D03*
X3840000Y280000D03*
Y730000D03*
Y510000D03*
Y1410000D03*
Y1180000D03*
Y960000D03*
G54D21*
G01X530000Y1210000D02*
Y1345900D01*
G01X394100Y1210000D02*
X530000D01*
G01D02*
X665900D01*
G54D12*
X276200Y785000D03*
X123800D03*
Y935000D03*
X276200D03*
X783800Y780000D03*
X936200D03*
X783800Y530000D03*
X936200D03*
X783800Y1080000D03*
X936200D03*
X783800Y930000D03*
X936200D03*
X783800Y1230000D03*
X936200D03*
X2713800Y1520000D03*
X2723800Y190000D03*
X2876200D03*
X2866200Y1520000D03*
X3243800D03*
X3416200Y190000D03*
X3263800D03*
X3396200Y1520000D03*
G54D22*
G01X470000Y360000D02*
X380000Y450000D01*
G01X420000Y650000D02*
X430000Y640000D01*
X620000D01*
X650000Y670000D01*
G01X380000Y450000D02*
Y490000D01*
G01X970000Y680000D02*
X1050000Y760000D01*
X1060000D01*
G01X960000Y630000D02*
X990000D01*
G01X1080000Y570000D02*
X1160000Y650000D01*
G01X990000Y630000D02*
X1050000Y570000D01*
G01X1060000Y660000D02*
X1130000Y730000D01*
X1220000D01*
G01X650000Y1470000D02*
X1480000D01*
X1710000Y1240000D01*
Y1140000D01*
G01X650000Y1396340D02*
X1493660D01*
X1630000Y1260000D01*
Y1140000D01*
G01X1390000Y240000D02*
Y610000D01*
G01X1560000Y510000D02*
X1470000Y420000D01*
Y240000D01*
G01X1788400Y600000D02*
Y498410D01*
X1630000Y340010D01*
Y240000D01*
G01X1310000Y650000D02*
X1350000Y690000D01*
G01X1220000Y650000D02*
X1310000D01*
G01X1160000D02*
X1220000D01*
G01X1550000Y1020000D02*
X1760000D01*
X1790000Y1050000D01*
Y1140000D01*
G01Y20000D02*
X2530000D01*
G01X2410000Y160000D02*
X2350000D01*
X2270000Y240000D01*
X1950000D01*
G01X2260000Y160000D02*
X2220000Y120000D01*
X1900000D01*
X1870000Y150000D01*
Y240000D01*
G01X2540000Y160000D02*
X2450000Y70000D01*
X1850000D01*
X1790000Y130000D01*
Y240000D01*
G01X1986200Y603800D02*
X1963800D01*
X1710000Y350000D01*
Y240000D01*
G01X1870000Y1140000D02*
Y1461120D01*
G01X1670000Y870000D02*
X1860000D01*
X2020000Y1030000D01*
Y1283800D01*
X1960000Y1343800D01*
G01X2110000Y1130000D02*
X2070000Y1170000D01*
Y1303800D01*
X2110000Y1343800D01*
G01X1790000Y1140000D02*
Y1343800D01*
G01X2140000Y1210000D02*
X2210000D01*
X2260000Y1260000D01*
Y1343800D01*
G01X1669120Y950000D02*
X1870000D01*
X1950000Y1030000D01*
Y1140000D01*
G01X1960000Y1496200D02*
Y1510000D01*
X1880000Y1590000D01*
X1720000D01*
X1670000Y1540000D01*
G01X2410000Y603800D02*
Y436200D01*
G01Y1096200D02*
Y1263800D01*
G54D13*
X530000Y760000D03*
Y1210000D03*
Y960000D03*
G54D23*
G01X250000Y0D02*
X3600000D01*
G03X3900000Y300000I0J300000D01*
G01Y1420000D01*
G03X3600000Y1720000I-300000J0D01*
G01X250000D01*
G03X0Y1470000I0J-250000D01*
G01Y250000D01*
G03X250000Y0I250000J0D01*
G01X335000Y635000D02*
G03I-75000J0D01*
G01Y1085000D02*
G03I-75000J0D01*
G01X340000Y635000D02*
G03I-80000J0D01*
G01Y1085000D02*
G03I-80000J0D01*
G54D14*
X530000Y510000D03*
G54D24*
G01X260000Y260000D02*
X40000D01*
G01X260000Y1460000D02*
X40000D01*
G01X230000Y40000D02*
X260000Y70000D01*
Y260000D01*
G01X230000Y480000D02*
X260000Y450000D01*
Y260000D01*
G01X380000Y790000D02*
X375000Y785000D01*
G01D02*
X276200D01*
G01X370000Y940000D02*
X365000Y935000D01*
G01D02*
X276200D01*
G01X240000Y1250000D02*
X260000Y1270000D01*
Y1460000D01*
G01X230000Y1680000D02*
X260000Y1650000D01*
Y1460000D01*
G01X1220000Y970000D02*
X1140000D01*
X1060000Y1050000D01*
G01X936200Y1230000D02*
Y1080000D01*
G01Y1230000D02*
X986200Y1280000D01*
X1510000D01*
X1550000Y1240000D01*
Y1140000D01*
G01X2120000Y810000D02*
X2020000D01*
X1900000Y690000D01*
X1590000D01*
X1310000Y970000D01*
X1220000D01*
G01X2120000Y890000D02*
X1980000D01*
X1860000Y770000D01*
X1660000D01*
X1550000Y880000D01*
G01Y1140000D02*
Y1020000D01*
G01D02*
Y880000D01*
G01X2270000Y850000D02*
X2250000D01*
X2210000Y890000D01*
X2120000D01*
G01X2727100Y500000D02*
Y692900D01*
X2663800Y756200D01*
X2410000D01*
G01X2270000Y750000D02*
X2403800D01*
X2410000Y756200D01*
G01X2727100Y1210000D02*
Y1007100D01*
X2663800Y943800D01*
X2410000D01*
G01X2270000Y1000000D02*
X2353800D01*
X2410000Y943800D01*
G01X2440000Y1530000D02*
X2293800D01*
X2260000Y1496200D01*
G01X2723800Y190000D02*
Y496700D01*
X2727100Y500000D01*
G01X3050000Y1110000D02*
Y600000D01*
X3150000Y500000D01*
X3412900D01*
G01X2713800Y1520000D02*
Y1223300D01*
X2727100Y1210000D01*
G01X3416200Y190000D02*
Y496700D01*
X3412900Y500000D01*
G01X3270000Y860000D02*
Y1050000D01*
X3412900Y1192900D01*
Y1210000D01*
G01X3396200Y1520000D02*
Y1226700D01*
X3412900Y1210000D01*
G54D15*
X964140Y360000D03*
X755860D03*
G54D25*
G01X530000Y510000D02*
X570000D01*
X720000Y360000D01*
X755860D01*
G01X964140D02*
X936200Y387940D01*
G01D02*
Y530000D01*
G54D16*
X1390000Y240000D03*
X1470000D03*
X1550000D03*
X1630000D03*
Y1140000D03*
X1550000D03*
X1470000D03*
X1390000D03*
X1710000Y240000D03*
X1790000D03*
X1870000D03*
X1950000D03*
Y1140000D03*
X1870000D03*
X1790000D03*
X1710000D03*
G54D17*
X1220000Y810000D03*
Y730000D03*
Y650000D03*
Y570000D03*
Y490000D03*
Y410000D03*
Y970000D03*
Y890000D03*
X2120000Y410000D03*
Y490000D03*
Y570000D03*
Y650000D03*
Y730000D03*
Y810000D03*
Y890000D03*
Y970000D03*
G54D18*
X2110000Y1343800D03*
X1960000D03*
X1790000D03*
X2110000Y1496200D03*
X1960000D03*
X1790000D03*
X2410000Y283800D03*
Y436200D03*
Y603800D03*
Y756200D03*
Y1263800D03*
Y1416200D03*
X2260000Y1343800D03*
X2410000Y1096200D03*
Y943800D03*
X2260000Y1496200D03*
G54D19*
X2727100Y500000D03*
Y1210000D03*
X3412900Y500000D03*
Y1210000D03*
M02*
