G04 ================== begin FILE IDENTIFICATION RECORD ==================*
G04 Layout Name:  USBAUDIO_TEST_V10A.brd*
G04 Film Name:    Drill_Legend*
G04 File Format:  Gerber RS274X*
G04 File Origin:  Cadence Allegro 16.6-2015-S088*
G04 Origin Date:  Thu Aug 31 10:09:24 2017*
G04 *
G04 Layer:  MANUFACTURING/NCDRILL_LEGEND*
G04 Layer:  MANUFACTURING/NCDRILL_FIGURE*
G04 Layer:  BOARD GEOMETRY/DIMENSION*
G04 Layer:  MANUFACTURING/NCLEGEND-1-2*
G04 Layer:  BOARD GEOMETRY/OUTLINE*
G04 *
G04 Offset:    (0.0000 0.0000)*
G04 Mirror:    No*
G04 Mode:      Positive*
G04 Rotation:  0*
G04 FullContactRelief:  No*
G04 UndefLineWidth:     0.1524*
G04 ================== end FILE IDENTIFICATION RECORD ====================*
%FSLAX55Y55*MOMM*%
%IR0*IPPOS*OFA0.00000B0.00000*MIA0B0*SFA1.00000B1.00000*%
%AMMACRO12*
1,1,.1524,.45,.45*
20,1,.1524,.45,.45,.45,-.45,0.0*
1,1,.1524,.45,-.45*
20,1,.1524,.45,-.45,-.45,-.45,0.0*
1,1,.1524,-.45,-.45*
20,1,.1524,-.45,-.45,-.45,.45,0.0*
1,1,.1524,-.45,.45*
20,1,.1524,-.45,.45,.45,.45,0.0*
1,1,.1524,.45,.45*
%
%ADD12MACRO12*%
%AMMACRO11*
1,1,.1524,.1524,0.0*
20,1,.1524,.1524,0.0,-.1524,0.0,0.0*
1,1,.1524,-.1524,0.0*
1,1,.1524,0.0,.1524*
20,1,.1524,0.0,.1524,0.0,-.1524,0.0*
1,1,.1524,0.0,-.1524*
%
%ADD11MACRO11*%
%AMMACRO10*
1,1,.1524,1.15,0.0*
20,1,.1524,1.15,0.0,.575,.995929,0.0*
1,1,.1524,.575,.995929*
20,1,.1524,.575,.995929,-.575,.995929,0.0*
1,1,.1524,-.575,.995929*
20,1,.1524,-.575,.995929,-1.15,0.0,0.0*
1,1,.1524,-1.15,0.0*
20,1,.1524,-1.15,0.0,-.575,-.995929,0.0*
1,1,.1524,-.575,-.995929*
20,1,.1524,-.575,-.995929,.575,-.995929,0.0*
1,1,.1524,.575,-.995929*
20,1,.1524,.575,-.995929,1.15,0.0,0.0*
1,1,.1524,1.15,0.0*
%
%ADD10MACRO10*%
%ADD13C,.2032*%
%ADD14C,.1524*%
G75*
%LPD*%
G75*
G54D10*
X260000Y260000D03*
Y1460000D03*
X5381730Y322500D03*
G54D11*
X430000Y50000D03*
X540000Y120000D03*
Y220000D03*
Y320000D03*
X530000Y1530000D03*
X450000Y1660000D03*
X1040000Y50000D03*
X840000D03*
X640000D03*
Y220000D03*
X1050000Y180000D03*
Y240000D03*
X1090000Y340000D03*
X1060000Y760000D03*
Y660000D03*
X1070000Y1150000D03*
X1060000Y1050000D03*
X650000Y1396340D03*
X890000Y1660000D03*
X680000D03*
X1090000D03*
X650000Y1470000D03*
X1650000Y50000D03*
X1440000D03*
X1240000D03*
X1390000Y690000D03*
X1550000Y880000D03*
X1390000Y610000D03*
X1560000Y510000D03*
X1260000Y1150000D03*
X1300000Y1660000D03*
X1720000Y520000D03*
X1670000Y870000D03*
X1788400Y600000D03*
X1986200Y603800D03*
X2170000Y1060000D03*
X2110000Y1130000D03*
X2140000Y1210000D03*
X1669120Y950000D03*
X1670000Y1540000D03*
X2620000Y50000D03*
X2410000Y160000D03*
X2260000D03*
X2540000D03*
X2270000Y540000D03*
Y640000D03*
X2580000Y850000D03*
X2270000D03*
Y750000D03*
X2530000Y1250000D03*
X2270000Y1000000D03*
X2530000Y1420000D03*
X2540000Y1660000D03*
X2310000D03*
X2440000Y1530000D03*
X3110000Y50000D03*
X2860000D03*
X3170000Y730000D03*
X2940000Y650000D03*
X2730000Y850000D03*
X3170000Y980000D03*
X2940000D03*
X3050000Y1110000D03*
X3040000Y1660000D03*
X2810000D03*
X3660000Y280000D03*
X3620000Y50000D03*
X3350000D03*
X3660000Y730000D03*
Y510000D03*
X3270000Y860000D03*
X3660000Y1410000D03*
Y1180000D03*
Y960000D03*
X3260000Y1660000D03*
X3490000D03*
X3690000Y1610000D03*
X3840000Y280000D03*
Y730000D03*
Y510000D03*
Y1410000D03*
Y1180000D03*
Y960000D03*
X5381730Y1592500D03*
G54D12*
X530000Y760000D03*
Y510000D03*
Y1210000D03*
Y960000D03*
X5381730Y957500D03*
G54D13*
G01X2940000Y850000D02*
G03I-70000J0D01*
G01X3540000D02*
G03I-70000J0D01*
G54D14*
G01X-2215750Y774750D02*
Y965250D01*
X-2244200Y927150D01*
G01Y774750D02*
X-2187310D01*
G01X-2029990D02*
X-2025250Y816020D01*
X-2018140Y850950D01*
X-2008660Y882700D01*
X-1996800Y917620D01*
X-1977840Y965250D01*
X-2072660D01*
G01X-1834750Y768400D02*
X-1839490Y771580D01*
Y777920D01*
X-1834750Y781100D01*
X-1830010Y777920D01*
Y771580D01*
X-1834750Y768400D01*
G01X-1689290Y933500D02*
X-1675070Y952550D01*
X-1658470Y962080D01*
X-1639510Y965250D01*
X-1615800Y958900D01*
X-1599210Y943020D01*
X-1594470Y923980D01*
X-1596840Y904920D01*
X-1606320Y889050D01*
X-1653730Y857300D01*
X-1675070Y835070D01*
X-1689290Y803320D01*
X-1694030Y774750D01*
X-1594470D01*
G01X250000Y0D02*
X3600000D01*
G03X3900000Y300000I0J300000D01*
G01Y1420000D01*
G03X3600000Y1720000I-300000J0D01*
G01X250000D01*
G03X0Y1470000I0J-250000D01*
G01Y250000D01*
G03X250000Y0I250000J0D01*
G01X335000Y635000D02*
G03I-75000J0D01*
G01Y1085000D02*
G03I-75000J0D01*
G01X1912600Y-377150D02*
X1926820Y-399380D01*
X1945780Y-412080D01*
X1967120Y-415250D01*
X1986090Y-412080D01*
X2005050Y-396200D01*
X2016900Y-377150D01*
X2019270Y-358100D01*
X2014530Y-335880D01*
X1997940Y-320000D01*
X1981340Y-313650D01*
X1960010D01*
G01X1981340D02*
X1995570Y-304130D01*
X2007420Y-288250D01*
X2012160Y-269200D01*
X2007420Y-250150D01*
X1995570Y-234280D01*
X1974230Y-224750D01*
X1952900Y-227920D01*
X1931560Y-240630D01*
G01X2114950Y-393030D02*
X2131540Y-408900D01*
X2150510Y-415250D01*
X2169470Y-408900D01*
X2186070Y-389860D01*
X2197920Y-361270D01*
X2202660Y-332700D01*
Y-297780D01*
X2197920Y-269200D01*
X2186070Y-243800D01*
X2171840Y-231100D01*
X2155250Y-224750D01*
X2136280Y-231100D01*
X2122060Y-243800D01*
X2112580Y-262850D01*
X2107840Y-288250D01*
X2112580Y-310470D01*
X2124430Y-332700D01*
X2138660Y-345400D01*
X2155250Y-348580D01*
X2174210Y-342230D01*
X2188440Y-326350D01*
X2202660Y-297780D01*
G01X-250000Y0D02*
X-2180000D01*
G01X200000Y1720000D02*
X-2180000D01*
G01X-1930000Y624260D02*
Y0D01*
G01X-1992500Y400000D02*
X-1930000Y0D01*
X-1867500Y400000D01*
X-1992500D01*
G01X-1930000Y1115740D02*
Y1720000D01*
G01X-1867500Y1320000D02*
X-1930000Y1720000D01*
X-1992500Y1320000D01*
X-1867500D01*
G01X0Y-250000D02*
Y-570000D01*
G01X1743140Y-320000D02*
X0D01*
G01X400000Y-257500D02*
X0Y-320000D01*
X400000Y-382500D01*
Y-257500D01*
G01X340000Y635000D02*
G03I-80000J0D01*
G01Y1085000D02*
G03I-80000J0D01*
G01X2376860Y-320000D02*
X3900000D01*
G01X3500000Y-382500D02*
X3900000Y-320000D01*
X3500000Y-257500D01*
Y-382500D01*
G01X3900000Y110000D02*
Y-570000D01*
G01X4240000Y5000D02*
Y3830000D01*
X16523440D01*
Y5000D01*
X4240000D01*
G01Y640000D02*
X16523440D01*
G01X4240000Y1275000D02*
X16523440D01*
G01X4240000Y1910000D02*
X16523440D01*
G01X4240000Y2545000D02*
X16523440D01*
G01X4240000Y3180000D02*
X16523440D01*
G01X4519520Y2068750D02*
Y2386250D01*
X4669140D01*
G01X4614010Y2232800D02*
X4519520D01*
G01X4862050Y2386250D02*
X4956530D01*
G01X4909290D02*
Y2068750D01*
G01X4862050D02*
X4956530D01*
G01X5247870Y2227500D02*
X5326620D01*
Y2132250D01*
X5302990Y2100490D01*
X5275430Y2079330D01*
X5236060Y2068750D01*
X5196690Y2079330D01*
X5169130Y2100490D01*
X5145510Y2132250D01*
X5129760Y2169290D01*
X5121880Y2211620D01*
Y2248670D01*
X5129760Y2280410D01*
X5145510Y2317460D01*
X5169130Y2349210D01*
X5192750Y2370370D01*
X5224250Y2386250D01*
X5251810D01*
X5283300Y2375670D01*
X5306930Y2354500D01*
G01X5452600Y2386250D02*
Y2158710D01*
X5468340Y2111070D01*
X5499840Y2079330D01*
X5539210Y2068750D01*
X5578580Y2079330D01*
X5610080Y2111070D01*
X5625820Y2158710D01*
Y2386250D01*
G01X5775430Y2068750D02*
Y2386250D01*
X5873850D01*
X5905350Y2370370D01*
X5925040Y2349210D01*
X5932910Y2306870D01*
X5925040Y2264540D01*
X5901410Y2238090D01*
X5873850Y2222200D01*
X5775430D01*
G01X5873850D02*
X5932910Y2068750D01*
G01X6247870D02*
X6090390D01*
Y2386250D01*
X6247870D01*
G01X6184880Y2232800D02*
X6090390D01*
G01X6031330Y2703750D02*
X6129760Y3021250D01*
X6228190Y2703750D01*
G01X6192750Y2814870D02*
X6066760D01*
G01X6365980Y3021250D02*
Y2703750D01*
X6523460D01*
G01X6680940Y3021250D02*
Y2703750D01*
X6838420D01*
G01X7302990Y3021250D02*
Y2793710D01*
X7318730Y2746070D01*
X7350230Y2714330D01*
X7389600Y2703750D01*
X7428970Y2714330D01*
X7460470Y2746070D01*
X7476210Y2793710D01*
Y3021250D01*
G01X7614010Y2703750D02*
Y3021250D01*
X7795110Y2703750D01*
Y3021250D01*
G01X7972280D02*
X8066760D01*
G01X8019520D02*
Y2703750D01*
G01X7972280D02*
X8066760D01*
G01X8334480Y3021250D02*
Y2703750D01*
G01X8243930Y3021250D02*
X8425030D01*
G01X8566760Y2746070D02*
X8598260Y2719620D01*
X8633690Y2703750D01*
X8665190D01*
X8696680Y2719620D01*
X8720310Y2746070D01*
X8732120Y2783130D01*
X8724250Y2820160D01*
X8704560Y2851910D01*
X8669120Y2873090D01*
X8621880Y2883670D01*
X8594320Y2904830D01*
X8582510Y2941870D01*
X8590390Y2978920D01*
X8610070Y3005370D01*
X8637630Y3021250D01*
X8665190D01*
X8692750Y3010670D01*
X8716370Y2984210D01*
G01X9180930Y2703750D02*
X9279360Y3021250D01*
X9377790Y2703750D01*
G01X9342350Y2814870D02*
X9216360D01*
G01X9515580Y2703750D02*
Y3021250D01*
X9614000D01*
X9645500Y3005370D01*
X9665190Y2984210D01*
X9673060Y2941870D01*
X9665190Y2899540D01*
X9641560Y2873090D01*
X9614000Y2857200D01*
X9515580D01*
G01X9614000D02*
X9673060Y2703750D01*
G01X9988020D02*
X9830540D01*
Y3021250D01*
X9988020D01*
G01X9925030Y2867800D02*
X9830540D01*
G01X10491960Y3021250D02*
X10586440D01*
G01X10539200D02*
Y2703750D01*
G01X10491960D02*
X10586440D01*
G01X10763610D02*
Y3021250D01*
X10944710Y2703750D01*
Y3021250D01*
G01X11381710Y2703750D02*
Y3021250D01*
X11484080Y2756670D01*
X11586450Y3021250D01*
Y2703750D01*
G01X11751800Y3021250D02*
X11846280D01*
G01X11799040D02*
Y2703750D01*
G01X11751800D02*
X11846280D01*
G01X12035260Y3021250D02*
Y2703750D01*
X12192740D01*
G01X12350220Y3021250D02*
Y2703750D01*
X12507700D01*
G01X12696680Y3021250D02*
X12791160D01*
G01X12743920D02*
Y2703750D01*
G01X12696680D02*
X12791160D01*
G01X12956510D02*
Y3021250D01*
X13058880Y2756670D01*
X13161250Y3021250D01*
Y2703750D01*
G01X13452580D02*
X13295100D01*
Y3021250D01*
X13452580D01*
G01X13389590Y2867800D02*
X13295100D01*
G01X13688800Y3021250D02*
Y2703750D01*
G01X13598250Y3021250D02*
X13779350D01*
G01X14082500Y2703750D02*
X13925020D01*
Y3021250D01*
X14082500D01*
G01X14019510Y2867800D02*
X13925020D01*
G01X14239980Y2703750D02*
Y3021250D01*
X14338400D01*
X14369900Y3005370D01*
X14389590Y2984210D01*
X14397460Y2941870D01*
X14389590Y2899540D01*
X14365960Y2873090D01*
X14338400Y2857200D01*
X14239980D01*
G01X14338400D02*
X14397460Y2703750D01*
G01X14551000Y2746070D02*
X14582500Y2719620D01*
X14617930Y2703750D01*
X14649430D01*
X14680920Y2719620D01*
X14704550Y2746070D01*
X14716360Y2783130D01*
X14708490Y2820160D01*
X14688800Y2851910D01*
X14653360Y2873090D01*
X14606120Y2883670D01*
X14578560Y2904830D01*
X14566750Y2941870D01*
X14574630Y2978920D01*
X14594310Y3005370D01*
X14621870Y3021250D01*
X14649430D01*
X14676990Y3010670D01*
X14700610Y2984210D01*
G01X6358110Y3353750D02*
Y3671250D01*
X6436840D01*
X6468340Y3655370D01*
X6491960Y3634210D01*
X6511650Y3602460D01*
X6527400Y3565410D01*
X6531330Y3512500D01*
X6527400Y3459580D01*
X6511650Y3422540D01*
X6491960Y3390780D01*
X6468340Y3369620D01*
X6436840Y3353750D01*
X6358110D01*
G01X6680940D02*
Y3671250D01*
X6779360D01*
X6810860Y3655370D01*
X6830550Y3634210D01*
X6838420Y3591870D01*
X6830550Y3549540D01*
X6806920Y3523090D01*
X6779360Y3507200D01*
X6680940D01*
G01X6779360D02*
X6838420Y3353750D01*
G01X7027400Y3671250D02*
X7121880D01*
G01X7074640D02*
Y3353750D01*
G01X7027400D02*
X7121880D01*
G01X7310860Y3671250D02*
Y3353750D01*
X7468340D01*
G01X7625820Y3671250D02*
Y3353750D01*
X7783300D01*
G01X8421090Y3644790D02*
X8397470Y3660670D01*
X8369920Y3671250D01*
X8338420D01*
X8302980Y3655370D01*
X8275430Y3628920D01*
X8255740Y3597160D01*
X8239990Y3544250D01*
X8236050Y3496620D01*
X8243930Y3449000D01*
X8255740Y3417250D01*
X8279360Y3385490D01*
X8306920Y3364330D01*
X8334480Y3353750D01*
X8362040D01*
X8389600Y3364330D01*
X8413220Y3380200D01*
X8432910Y3401360D01*
G01X8566760Y3353750D02*
Y3671250D01*
G01X8732120D02*
Y3353750D01*
G01Y3512500D02*
X8566760D01*
G01X8865970Y3353750D02*
X8964400Y3671250D01*
X9062830Y3353750D01*
G01X9027390Y3464870D02*
X8901400D01*
G01X9200620Y3353750D02*
Y3671250D01*
X9299040D01*
X9330540Y3655370D01*
X9350230Y3634210D01*
X9358100Y3591870D01*
X9350230Y3549540D01*
X9326600Y3523090D01*
X9299040Y3507200D01*
X9200620D01*
G01X9299040D02*
X9358100Y3353750D01*
G01X9594320Y3671250D02*
Y3353750D01*
G01X9503770Y3671250D02*
X9684870D01*
G01X9909280Y3343170D02*
X9901400Y3348460D01*
Y3359040D01*
X9909280Y3364330D01*
X9917160Y3359040D01*
Y3348460D01*
X9909280Y3343170D01*
G01Y3486030D02*
X9901400Y3491330D01*
Y3501910D01*
X9909280Y3507200D01*
X9917160Y3501910D01*
Y3491330D01*
X9909280Y3486030D01*
G01X10539200Y3671250D02*
Y3353750D01*
G01X10448650Y3671250D02*
X10629750D01*
G01X10854160Y3353750D02*
X10822660Y3359040D01*
X10795110Y3380200D01*
X10771480Y3411960D01*
X10755730Y3449000D01*
X10747860Y3491330D01*
Y3533670D01*
X10755730Y3576000D01*
X10771480Y3613040D01*
X10795110Y3644790D01*
X10822660Y3665960D01*
X10854160Y3671250D01*
X10885650Y3665960D01*
X10913210Y3644790D01*
X10936840Y3613040D01*
X10952590Y3576000D01*
X10960460Y3533670D01*
Y3491330D01*
X10952590Y3449000D01*
X10936840Y3411960D01*
X10913210Y3380200D01*
X10885650Y3359040D01*
X10854160Y3353750D01*
G01X11090380D02*
Y3671250D01*
X11184870D01*
X11216360Y3655370D01*
X11239990Y3618330D01*
X11247860Y3576000D01*
X11239990Y3533670D01*
X11220300Y3501910D01*
X11184870Y3486030D01*
X11090380D01*
G01X11799040Y3671250D02*
Y3353750D01*
G01X11743920Y3565410D02*
X11854160D01*
G01X12114000Y3353750D02*
X12090380Y3359040D01*
X12066760Y3380200D01*
X12051000Y3417250D01*
X12043130Y3459580D01*
X12051000Y3501910D01*
X12066760Y3538960D01*
X12090380Y3560120D01*
X12114000Y3565410D01*
X12137620Y3560120D01*
X12161240Y3538960D01*
X12176990Y3501910D01*
X12180930Y3459580D01*
X12176990Y3417250D01*
X12161240Y3380200D01*
X12137620Y3359040D01*
X12114000Y3353750D01*
G01X12775410Y3523090D02*
X12791160Y3538960D01*
X12802970Y3565410D01*
X12810850Y3602460D01*
X12802970Y3634210D01*
X12787230Y3655370D01*
X12759670Y3671250D01*
X12653370D01*
Y3353750D01*
X12783290D01*
X12810850Y3374910D01*
X12826600Y3406670D01*
X12834470Y3443710D01*
X12826600Y3480740D01*
X12802970Y3512500D01*
X12775410Y3523090D01*
X12653370D01*
G01X13058880Y3353750D02*
X13027380Y3359040D01*
X12999830Y3380200D01*
X12976200Y3411960D01*
X12960450Y3449000D01*
X12952580Y3491330D01*
Y3533670D01*
X12960450Y3576000D01*
X12976200Y3613040D01*
X12999830Y3644790D01*
X13027380Y3665960D01*
X13058880Y3671250D01*
X13090370Y3665960D01*
X13117930Y3644790D01*
X13141560Y3613040D01*
X13157310Y3576000D01*
X13165180Y3533670D01*
Y3491330D01*
X13157310Y3449000D01*
X13141560Y3411960D01*
X13117930Y3380200D01*
X13090370Y3359040D01*
X13058880Y3353750D01*
G01X13373840Y3671250D02*
Y3353750D01*
G01X13283290Y3671250D02*
X13464390D01*
G01X13688800D02*
Y3353750D01*
G01X13598250Y3671250D02*
X13779350D01*
G01X14003760Y3353750D02*
X13972260Y3359040D01*
X13944710Y3380200D01*
X13921080Y3411960D01*
X13905330Y3449000D01*
X13897460Y3491330D01*
Y3533670D01*
X13905330Y3576000D01*
X13921080Y3613040D01*
X13944710Y3644790D01*
X13972260Y3665960D01*
X14003760Y3671250D01*
X14035250Y3665960D01*
X14062810Y3644790D01*
X14086440Y3613040D01*
X14102190Y3576000D01*
X14110060Y3533670D01*
Y3491330D01*
X14102190Y3449000D01*
X14086440Y3411960D01*
X14062810Y3380200D01*
X14035250Y3359040D01*
X14003760Y3353750D01*
G01X14216350D02*
Y3671250D01*
X14318720Y3406670D01*
X14421090Y3671250D01*
Y3353750D01*
G01X6523460Y2545000D02*
Y5000D01*
G01X8137630Y1751250D02*
X8106130Y1740670D01*
X8082510Y1714210D01*
X8066760Y1682460D01*
X8054950Y1640120D01*
X8051020Y1592500D01*
X8054950Y1544870D01*
X8066760Y1502540D01*
X8082510Y1470780D01*
X8106130Y1444330D01*
X8137630Y1433750D01*
X8169120Y1444330D01*
X8192750Y1470780D01*
X8208500Y1502540D01*
X8220310Y1544870D01*
X8224240Y1592500D01*
X8220310Y1640120D01*
X8208500Y1682460D01*
X8192750Y1714210D01*
X8169120Y1740670D01*
X8137630Y1751250D01*
G01X8452590Y1423170D02*
X8444710Y1428460D01*
Y1439040D01*
X8452590Y1444330D01*
X8460470Y1439040D01*
Y1428460D01*
X8452590Y1423170D01*
G01X8680940Y1497250D02*
X8704550Y1460200D01*
X8736050Y1439040D01*
X8771490Y1433750D01*
X8802990Y1439040D01*
X8834480Y1465490D01*
X8854160Y1497250D01*
X8858100Y1529000D01*
X8850230Y1566030D01*
X8822670Y1592500D01*
X8795110Y1603090D01*
X8759670D01*
G01X8795110D02*
X8818730Y1618960D01*
X8838420Y1645410D01*
X8846290Y1677160D01*
X8838420Y1708920D01*
X8818730Y1735370D01*
X8783300Y1751250D01*
X8747870Y1745960D01*
X8712430Y1724790D01*
G01X9082510Y1751250D02*
X9051010Y1740670D01*
X9027390Y1714210D01*
X9011640Y1682460D01*
X8999830Y1640120D01*
X8995900Y1592500D01*
X8999830Y1544870D01*
X9011640Y1502540D01*
X9027390Y1470780D01*
X9051010Y1444330D01*
X9082510Y1433750D01*
X9114000Y1444330D01*
X9137630Y1470780D01*
X9153380Y1502540D01*
X9165190Y1544870D01*
X9169120Y1592500D01*
X9165190Y1640120D01*
X9153380Y1682460D01*
X9137630Y1714210D01*
X9114000Y1740670D01*
X9082510Y1751250D01*
G01X9444710Y1433750D02*
Y1751250D01*
X9299040Y1523710D01*
X9495900D01*
G01X9712430Y1433750D02*
X9739990Y1439040D01*
X9771480Y1454910D01*
X9791170Y1481360D01*
X9799040Y1518420D01*
X9791170Y1555450D01*
X9767550Y1587200D01*
X9732110Y1603090D01*
X9692750D01*
X9669120Y1613670D01*
X9649430Y1640120D01*
X9641560Y1677160D01*
X9653380Y1714210D01*
X9680930Y1740670D01*
X9712430Y1751250D01*
X9743920Y1740670D01*
X9771480Y1714210D01*
X9783300Y1677160D01*
X9775420Y1640120D01*
X9755740Y1613670D01*
X9732110Y1603090D01*
X9692750D01*
X9657310Y1587200D01*
X9633690Y1555450D01*
X9625820Y1518420D01*
X9633690Y1481360D01*
X9653380Y1454910D01*
X9684870Y1439040D01*
X9712430Y1433750D01*
G01X8369910Y2111070D02*
X8401410Y2084620D01*
X8436840Y2068750D01*
X8468340D01*
X8499830Y2084620D01*
X8523460Y2111070D01*
X8535270Y2148130D01*
X8527400Y2185160D01*
X8507710Y2216910D01*
X8472270Y2238090D01*
X8425030Y2248670D01*
X8397470Y2269830D01*
X8385660Y2306870D01*
X8393540Y2343920D01*
X8413220Y2370370D01*
X8440780Y2386250D01*
X8468340D01*
X8495900Y2375670D01*
X8519520Y2349210D01*
G01X8720310Y2386250D02*
X8814790D01*
G01X8767550D02*
Y2068750D01*
G01X8720310D02*
X8814790D01*
G01X9007700Y2386250D02*
X9157320D01*
X9007700Y2068750D01*
X9157320D01*
G01X9476210D02*
X9318730D01*
Y2386250D01*
X9476210D01*
G01X9413220Y2232800D02*
X9318730D01*
G01X8535260Y428330D02*
X8558890Y460080D01*
X8586450Y475960D01*
X8617950Y481250D01*
X8657310Y470670D01*
X8684880Y444210D01*
X8692750Y412460D01*
X8688810Y380700D01*
X8673060Y354250D01*
X8594320Y301330D01*
X8558890Y264290D01*
X8535260Y211360D01*
X8527390Y163750D01*
X8692750D01*
G01X8925030Y153170D02*
X8917150Y158460D01*
Y169040D01*
X8925030Y174330D01*
X8932910Y169040D01*
Y158460D01*
X8925030Y153170D01*
G01X9153380Y227250D02*
X9176990Y190200D01*
X9208490Y169040D01*
X9243930Y163750D01*
X9275430Y169040D01*
X9306920Y195490D01*
X9326600Y227250D01*
X9330540Y259000D01*
X9322670Y296030D01*
X9295110Y322500D01*
X9267550Y333090D01*
X9232110D01*
G01X9267550D02*
X9291170Y348960D01*
X9310860Y375410D01*
X9318730Y407160D01*
X9310860Y438920D01*
X9291170Y465370D01*
X9255740Y481250D01*
X9220310Y475960D01*
X9184870Y454790D01*
G01X8610070Y1116250D02*
X8578570Y1105670D01*
X8554950Y1079210D01*
X8539200Y1047460D01*
X8527390Y1005120D01*
X8523460Y957500D01*
X8527390Y909870D01*
X8539200Y867540D01*
X8554950Y835780D01*
X8578570Y809330D01*
X8610070Y798750D01*
X8641560Y809330D01*
X8665190Y835780D01*
X8680940Y867540D01*
X8692750Y909870D01*
X8696680Y957500D01*
X8692750Y1005120D01*
X8680940Y1047460D01*
X8665190Y1079210D01*
X8641560Y1105670D01*
X8610070Y1116250D01*
G01X8925030Y788170D02*
X8917150Y793460D01*
Y804040D01*
X8925030Y809330D01*
X8932910Y804040D01*
Y793460D01*
X8925030Y788170D01*
G01X9173060Y835780D02*
X9200620Y809330D01*
X9232110Y798750D01*
X9263610Y809330D01*
X9291170Y841070D01*
X9310860Y888710D01*
X9318730Y936330D01*
Y994540D01*
X9310860Y1042160D01*
X9291170Y1084500D01*
X9267550Y1105670D01*
X9239990Y1116250D01*
X9208490Y1105670D01*
X9184870Y1084500D01*
X9169120Y1052750D01*
X9161250Y1010410D01*
X9169120Y973380D01*
X9188810Y936330D01*
X9212430Y915160D01*
X9239990Y909870D01*
X9271480Y920450D01*
X9295110Y946910D01*
X9318730Y994540D01*
G01X11326600Y2545000D02*
Y5000D01*
G01X12074630Y163750D02*
Y481250D01*
X12169120D01*
X12200610Y465370D01*
X12224240Y428330D01*
X12232110Y386000D01*
X12224240Y343670D01*
X12204550Y311910D01*
X12169120Y296030D01*
X12074630D01*
G01X12389590Y481250D02*
Y163750D01*
X12547070D01*
G01X12684860D02*
X12783290Y481250D01*
X12881720Y163750D01*
G01X12846280Y274870D02*
X12720290D01*
G01X13098250Y481250D02*
Y163750D01*
G01X13007700Y481250D02*
X13188800D01*
G01X13491950Y163750D02*
X13334470D01*
Y481250D01*
X13491950D01*
G01X13428960Y327800D02*
X13334470D01*
G01X13641560Y163750D02*
Y481250D01*
X13720290D01*
X13751790Y465370D01*
X13775410Y444210D01*
X13795100Y412460D01*
X13810850Y375410D01*
X13814780Y322500D01*
X13810850Y269580D01*
X13795100Y232540D01*
X13775410Y200780D01*
X13751790Y179620D01*
X13720290Y163750D01*
X13641560D01*
G01X12074630Y798750D02*
Y1116250D01*
X12169120D01*
X12200610Y1100370D01*
X12224240Y1063330D01*
X12232110Y1021000D01*
X12224240Y978670D01*
X12204550Y946910D01*
X12169120Y931030D01*
X12074630D01*
G01X12389590Y1116250D02*
Y798750D01*
X12547070D01*
G01X12684860D02*
X12783290Y1116250D01*
X12881720Y798750D01*
G01X12846280Y909870D02*
X12720290D01*
G01X13098250Y1116250D02*
Y798750D01*
G01X13007700Y1116250D02*
X13188800D01*
G01X13491950Y798750D02*
X13334470D01*
Y1116250D01*
X13491950D01*
G01X13428960Y962800D02*
X13334470D01*
G01X13641560Y798750D02*
Y1116250D01*
X13720290D01*
X13751790Y1100370D01*
X13775410Y1079210D01*
X13795100Y1047460D01*
X13810850Y1010410D01*
X13814780Y957500D01*
X13810850Y904580D01*
X13795100Y867540D01*
X13775410Y835780D01*
X13751790Y814620D01*
X13720290Y798750D01*
X13641560D01*
G01X12074630Y1433750D02*
Y1751250D01*
X12169120D01*
X12200610Y1735370D01*
X12224240Y1698330D01*
X12232110Y1656000D01*
X12224240Y1613670D01*
X12204550Y1581910D01*
X12169120Y1566030D01*
X12074630D01*
G01X12389590Y1751250D02*
Y1433750D01*
X12547070D01*
G01X12684860D02*
X12783290Y1751250D01*
X12881720Y1433750D01*
G01X12846280Y1544870D02*
X12720290D01*
G01X13098250Y1751250D02*
Y1433750D01*
G01X13007700Y1751250D02*
X13188800D01*
G01X13491950Y1433750D02*
X13334470D01*
Y1751250D01*
X13491950D01*
G01X13428960Y1597800D02*
X13334470D01*
G01X13641560Y1433750D02*
Y1751250D01*
X13720290D01*
X13751790Y1735370D01*
X13775410Y1714210D01*
X13795100Y1682460D01*
X13810850Y1645410D01*
X13814780Y1592500D01*
X13810850Y1539580D01*
X13795100Y1502540D01*
X13775410Y1470780D01*
X13751790Y1449620D01*
X13720290Y1433750D01*
X13641560D01*
G01X12074630Y2068750D02*
Y2386250D01*
X12169120D01*
X12200610Y2370370D01*
X12224240Y2333330D01*
X12232110Y2291000D01*
X12224240Y2248670D01*
X12204550Y2216910D01*
X12169120Y2201030D01*
X12074630D01*
G01X12389590Y2386250D02*
Y2068750D01*
X12547070D01*
G01X12684860D02*
X12783290Y2386250D01*
X12881720Y2068750D01*
G01X12846280Y2179870D02*
X12720290D01*
G01X13098250Y2386250D02*
Y2068750D01*
G01X13007700Y2386250D02*
X13188800D01*
G01X13491950Y2068750D02*
X13334470D01*
Y2386250D01*
X13491950D01*
G01X13428960Y2232800D02*
X13334470D01*
G01X13641560Y2068750D02*
Y2386250D01*
X13720290D01*
X13751790Y2370370D01*
X13775410Y2349210D01*
X13795100Y2317460D01*
X13810850Y2280410D01*
X13814780Y2227500D01*
X13810850Y2174580D01*
X13795100Y2137540D01*
X13775410Y2105780D01*
X13751790Y2084620D01*
X13720290Y2068750D01*
X13641560D01*
G01X14554940Y2545000D02*
Y5000D01*
G01X15381710Y1433750D02*
X15409270Y1439040D01*
X15440760Y1454910D01*
X15460450Y1481360D01*
X15468320Y1518420D01*
X15460450Y1555450D01*
X15436830Y1587200D01*
X15401390Y1603090D01*
X15362030D01*
X15338400Y1613670D01*
X15318710Y1640120D01*
X15310840Y1677160D01*
X15322660Y1714210D01*
X15350210Y1740670D01*
X15381710Y1751250D01*
X15413200Y1740670D01*
X15440760Y1714210D01*
X15452580Y1677160D01*
X15444700Y1640120D01*
X15425020Y1613670D01*
X15401390Y1603090D01*
X15362030D01*
X15326590Y1587200D01*
X15302970Y1555450D01*
X15295100Y1518420D01*
X15302970Y1481360D01*
X15322660Y1454910D01*
X15354150Y1439040D01*
X15381710Y1433750D01*
G01X15610060Y1497250D02*
X15633670Y1460200D01*
X15665170Y1439040D01*
X15700610Y1433750D01*
X15732110Y1439040D01*
X15763600Y1465490D01*
X15783280Y1497250D01*
X15787220Y1529000D01*
X15779350Y1566030D01*
X15751790Y1592500D01*
X15724230Y1603090D01*
X15688790D01*
G01X15724230D02*
X15747850Y1618960D01*
X15767540Y1645410D01*
X15775410Y1677160D01*
X15767540Y1708920D01*
X15747850Y1735370D01*
X15712420Y1751250D01*
X15676990Y1745960D01*
X15641550Y1724790D01*
G01X15224230Y2068750D02*
X15192730Y2074040D01*
X15165180Y2095200D01*
X15141550Y2126960D01*
X15125800Y2164000D01*
X15117930Y2206330D01*
Y2248670D01*
X15125800Y2291000D01*
X15141550Y2328040D01*
X15165180Y2359790D01*
X15192730Y2380960D01*
X15224230Y2386250D01*
X15255720Y2380960D01*
X15283280Y2359790D01*
X15306910Y2328040D01*
X15322660Y2291000D01*
X15330530Y2248670D01*
Y2206330D01*
X15322660Y2164000D01*
X15306910Y2126960D01*
X15283280Y2095200D01*
X15255720Y2074040D01*
X15224230Y2068750D01*
G01X15255720Y2153420D02*
X15302970Y2068750D01*
G01X15539190Y2386250D02*
Y2068750D01*
G01X15448640Y2386250D02*
X15629740D01*
G01X15854150Y2068750D02*
Y2211620D01*
X15775410Y2386250D01*
G01X15932890D02*
X15854150Y2211620D01*
G01X15464380Y428330D02*
X15488010Y460080D01*
X15515570Y475960D01*
X15547070Y481250D01*
X15586430Y470670D01*
X15614000Y444210D01*
X15621870Y412460D01*
X15617930Y380700D01*
X15602180Y354250D01*
X15523440Y301330D01*
X15488010Y264290D01*
X15464380Y211360D01*
X15456510Y163750D01*
X15621870D01*
G01X15586430Y798750D02*
Y1116250D01*
X15440760Y888710D01*
X15637620D01*
M02*
