G04 ================== begin FILE IDENTIFICATION RECORD ==================*
G04 Layout Name:  USBAUDIO_TEST_V10A.brd*
G04 Film Name:    SilkScreen_Top*
G04 File Format:  Gerber RS274X*
G04 File Origin:  Cadence Allegro 16.6-2015-S088*
G04 Origin Date:  Thu Aug 31 10:09:24 2017*
G04 *
G04 Layer:  BOARD GEOMETRY/OUTLINE*
G04 Layer:  REF DES/SILKSCREEN_TOP*
G04 Layer:  PACKAGE GEOMETRY/SILKSCREEN_TOP*
G04 Layer:  BOARD GEOMETRY/SILKSCREEN_TOP*
G04 *
G04 Offset:    (0.0000 0.0000)*
G04 Mirror:    No*
G04 Mode:      Positive*
G04 Rotation:  0*
G04 FullContactRelief:  No*
G04 UndefLineWidth:     0.1524*
G04 ================== end FILE IDENTIFICATION RECORD ====================*
%FSLAX55Y55*MOMM*%
%IR0*IPPOS*OFA0.00000B0.00000*MIA0B0*SFA1.00000B1.00000*%
%ADD10C,.2032*%
%ADD11C,.254*%
%ADD12C,.1524*%
%ADD13C,.1778*%
G75*
%LPD*%
G75*
G36*
G01X1091980Y215380D02*
G03I-29620J0D01*
G37*
G36*
G01X1993200Y520500D02*
Y482400D01*
X1790000D01*
Y520500D01*
X1993200D01*
G37*
G36*
G01Y330000D02*
Y520500D01*
X2018600D01*
Y330000D01*
X1993200D01*
G37*
G36*
G01X2171060Y1620000D02*
G03I-36060J0D01*
G37*
G54D10*
G01X720300Y166500D02*
X999700D01*
G01Y293500D02*
X720300D01*
G01X717760Y166500D02*
G02Y293500I73330J63500D01*
G01X999700Y166500D02*
G03Y293500I-71651J63500D01*
G01X720300Y566500D02*
X999700D01*
G01Y693500D02*
X720300D01*
G01X717760Y566500D02*
G02Y693500I73330J63500D01*
G01X999700Y566500D02*
G03Y693500I-71651J63500D01*
G01X720300Y416500D02*
X999700D01*
G01Y543500D02*
X720300D01*
G01X717760Y416500D02*
G02Y543500I73330J63500D01*
G01X999700Y416500D02*
G03Y543500I-71651J63500D01*
G01X1319700Y1206500D02*
X1040300D01*
Y1333500D01*
X1319700D01*
G01X720300Y986500D02*
X999700D01*
G01Y1113500D02*
X720300D01*
G01X717760Y986500D02*
G02Y1113500I73330J63500D01*
G01X999700Y986500D02*
G03Y1113500I-71651J63500D01*
G01X720300Y1206500D02*
X999700D01*
G01Y1333500D02*
X720300D01*
G01X717760Y1206500D02*
G02Y1333500I73330J63500D01*
G01X999700Y1206500D02*
G03Y1333500I-71651J63500D01*
G01X1319700Y1406500D02*
X1040300D01*
Y1533500D01*
X1319700D01*
G01X720300Y1406500D02*
X999700D01*
G01Y1533500D02*
X720300D01*
G01X717760Y1406500D02*
G02Y1533500I73330J63500D01*
G01X999700Y1406500D02*
G03Y1533500I-71651J63500D01*
G01X1426500Y469700D02*
Y190300D01*
G01X1553500D02*
Y469700D01*
G01X1426500Y190300D02*
G03X1553500I63500J71651D01*
G01X1703500Y550300D02*
X1576500D01*
G01D02*
Y829700D01*
X1703500D01*
Y550300D01*
G01X1553500D02*
X1426500D01*
G01D02*
Y829700D01*
X1553500D01*
Y550300D01*
G01X1426500Y472240D02*
G02X1553500I63500J-73330D01*
G01X1619700Y1333500D02*
Y1206500D01*
G01D02*
X1340300D01*
Y1333500D01*
X1619700D01*
G01X1319700D02*
Y1206500D01*
G01X1340300Y906500D02*
X1619700D01*
G01Y1033500D02*
X1340300D01*
G01X1337760Y906500D02*
G02Y1033500I73330J63500D01*
G01X1619700Y906500D02*
G03Y1033500I-71651J63500D01*
G01X1340300Y1056500D02*
X1619700D01*
G01Y1183500D02*
X1340300D01*
G01X1337760Y1056500D02*
G02Y1183500I73330J63500D01*
G01X1619700Y1056500D02*
G03Y1183500I-71651J63500D01*
G01Y1533500D02*
Y1406500D01*
G01D02*
X1340300D01*
Y1533500D01*
X1619700D01*
G01X1319700D02*
Y1406500D01*
G01X2036500Y479700D02*
Y200300D01*
G01D02*
G03X2163500I63500J71651D01*
G01X1953500Y540300D02*
X1826500D01*
G01D02*
Y819700D01*
X1953500D01*
Y540300D01*
G01X2036500Y482240D02*
G02X2163500I63500J-73330D01*
G01X2323500Y479700D02*
Y200300D01*
X2196500D01*
Y479700D01*
G01X2473500D02*
Y200300D01*
X2346500D01*
Y479700D01*
G01X2773500D02*
Y200300D01*
X2646500D01*
Y479700D01*
G01X2623500D02*
Y200300D01*
X2496500D01*
Y479700D01*
G01X2163500Y200300D02*
Y479700D01*
G01X2196500D02*
X2323500D01*
G01X2346500D02*
X2473500D01*
G01X2646500D02*
X2773500D01*
G01X2496500D02*
X2623500D01*
G01X2346500Y1109700D02*
Y830300D01*
G01X2473500D02*
Y1109700D01*
G01X2346500Y830300D02*
G03X2473500I63500J71651D01*
G01X2346500Y1112240D02*
G02X2473500I63500J-73330D01*
G01X2978900Y162200D02*
Y517800D01*
X2801100D01*
Y162200D01*
X2978900D01*
G01X2940000Y850000D02*
G03I-70000J0D01*
G01X3101100Y1567800D02*
Y1212200D01*
X3278900D01*
Y1567800D01*
X3101100D01*
G01X3073500Y1519700D02*
Y1240300D01*
X2946500D01*
Y1519700D01*
G01D02*
X3073500D01*
G01X3540000Y850000D02*
G03I-70000J0D01*
G54D11*
G01X380000Y260000D02*
X-1500000D01*
Y1460000D01*
X380000D01*
Y260000D01*
G01X-710000Y470000D02*
Y770000D01*
X-910000D01*
Y470000D01*
X-710000D01*
G01Y960000D02*
Y1260000D01*
X-910000D01*
Y960000D01*
X-710000D01*
G01X-20000Y260000D02*
Y1460000D01*
G01X1090300Y388100D02*
G02Y311900I-12700J-38100D01*
G01Y388100D02*
Y413500D01*
X1369700D01*
Y286500D01*
X1090300D01*
Y311900D01*
G01X1990000Y170000D02*
X1590000D01*
Y490000D01*
X1990000D01*
Y170000D01*
G01Y330000D02*
X1810000D01*
Y490000D01*
G01X2190000Y1130000D02*
G02Y1290000I0J80000D01*
G01D02*
Y1390000D01*
X1690000D01*
Y1030000D01*
X2190000D01*
Y1130000D01*
G01X2680000Y1160000D02*
X2540000D01*
Y540000D01*
X3180000D01*
G01X3380000Y1160000D02*
X2860000D01*
G01X3360000Y540000D02*
X3690000D01*
Y590000D01*
X3960000D01*
Y1110000D01*
X3690000D01*
Y1160000D01*
X3560000D01*
G54D12*
G01X250000Y0D02*
X3600000D01*
G03X3900000Y300000I0J300000D01*
G01Y1420000D01*
G03X3600000Y1720000I-300000J0D01*
G01X250000D01*
G03X0Y1470000I0J-250000D01*
G01Y250000D01*
G03X250000Y0I250000J0D01*
G01X460000Y58000D02*
X465000Y49000D01*
X471000Y43000D01*
X478000Y40000D01*
X486000Y43000D01*
X492000Y49000D01*
X498000Y58000D01*
X500000Y70000D01*
Y130000D01*
G01X550000Y40000D02*
Y130000D01*
X538000Y112000D01*
G01Y40000D02*
X562000D01*
G01X335000Y635000D02*
G03I-75000J0D01*
G01X612000Y1402500D02*
X606000Y1407000D01*
X599000Y1410000D01*
X591000D01*
X582000Y1405500D01*
X575000Y1398000D01*
X570000Y1389000D01*
X566000Y1374000D01*
X565000Y1360500D01*
X567000Y1347000D01*
X570000Y1338000D01*
X576000Y1329000D01*
X583000Y1323000D01*
X590000Y1320000D01*
X597000D01*
X604000Y1323000D01*
X610000Y1327500D01*
X615000Y1333500D01*
G01X660000Y1320000D02*
Y1410000D01*
X648000Y1392000D01*
G01Y1320000D02*
X672000D01*
G01X335000Y1085000D02*
G03I-75000J0D01*
G01X792000Y132500D02*
X786000Y137000D01*
X779000Y140000D01*
X771000D01*
X762000Y135500D01*
X755000Y128000D01*
X750000Y119000D01*
X746000Y104000D01*
X745000Y90500D01*
X747000Y77000D01*
X750000Y68000D01*
X756000Y59000D01*
X763000Y53000D01*
X770000Y50000D01*
X777000D01*
X784000Y53000D01*
X790000Y57500D01*
X795000Y63500D01*
G01X821000Y125000D02*
X827000Y134000D01*
X834000Y138500D01*
X842000Y140000D01*
X852000Y137000D01*
X859000Y129500D01*
X861000Y120500D01*
X860000Y111500D01*
X856000Y104000D01*
X836000Y89000D01*
X827000Y78500D01*
X821000Y63500D01*
X819000Y50000D01*
X861000D01*
G01X888000Y68000D02*
X894000Y57500D01*
X902000Y51500D01*
X911000Y50000D01*
X919000Y51500D01*
X927000Y59000D01*
X932000Y68000D01*
X933000Y77000D01*
X931000Y87500D01*
X924000Y95000D01*
X917000Y98000D01*
X908000D01*
G01X917000D02*
X923000Y102500D01*
X928000Y110000D01*
X930000Y119000D01*
X928000Y128000D01*
X923000Y135500D01*
X914000Y140000D01*
X905000Y138500D01*
X896000Y132500D01*
G01X762000Y392500D02*
X756000Y397000D01*
X749000Y400000D01*
X741000D01*
X732000Y395500D01*
X725000Y388000D01*
X720000Y379000D01*
X716000Y364000D01*
X715000Y350500D01*
X717000Y337000D01*
X720000Y328000D01*
X726000Y319000D01*
X733000Y313000D01*
X740000Y310000D01*
X747000D01*
X754000Y313000D01*
X760000Y317500D01*
X765000Y323500D01*
G01X791000Y385000D02*
X797000Y394000D01*
X804000Y398500D01*
X812000Y400000D01*
X822000Y397000D01*
X829000Y389500D01*
X831000Y380500D01*
X830000Y371500D01*
X826000Y364000D01*
X806000Y349000D01*
X797000Y338500D01*
X791000Y323500D01*
X789000Y310000D01*
X831000D01*
G01X892000D02*
Y400000D01*
X855000Y335500D01*
X905000D01*
G01X762000Y952500D02*
X756000Y957000D01*
X749000Y960000D01*
X741000D01*
X732000Y955500D01*
X725000Y948000D01*
X720000Y939000D01*
X716000Y924000D01*
X715000Y910500D01*
X717000Y897000D01*
X720000Y888000D01*
X726000Y879000D01*
X733000Y873000D01*
X740000Y870000D01*
X747000D01*
X754000Y873000D01*
X760000Y877500D01*
X765000Y883500D01*
G01X810000Y870000D02*
Y960000D01*
X798000Y942000D01*
G01Y870000D02*
X822000D01*
G01X880000D02*
Y960000D01*
X868000Y942000D01*
G01Y870000D02*
X892000D01*
G01X762000Y802500D02*
X756000Y807000D01*
X749000Y810000D01*
X741000D01*
X732000Y805500D01*
X725000Y798000D01*
X720000Y789000D01*
X716000Y774000D01*
X715000Y760500D01*
X717000Y747000D01*
X720000Y738000D01*
X726000Y729000D01*
X733000Y723000D01*
X740000Y720000D01*
X747000D01*
X754000Y723000D01*
X760000Y727500D01*
X765000Y733500D01*
G01X810000Y720000D02*
Y810000D01*
X798000Y792000D01*
G01Y720000D02*
X822000D01*
G01X858000Y733500D02*
X864000Y726000D01*
X871000Y721500D01*
X880000Y720000D01*
X889000Y723000D01*
X896000Y729000D01*
X901000Y739500D01*
X902000Y751500D01*
X900000Y763500D01*
X895000Y771000D01*
X888000Y777000D01*
X881000Y778500D01*
X874000Y777000D01*
X865000Y771000D01*
X868000Y810000D01*
X895000D01*
G01X1040000Y1080000D02*
Y1170000D01*
X1065000D01*
X1073000Y1165500D01*
X1078000Y1159500D01*
X1080000Y1147500D01*
X1078000Y1135500D01*
X1072000Y1128000D01*
X1065000Y1123500D01*
X1040000D01*
G01X1065000D02*
X1080000Y1080000D01*
G01X1130000D02*
Y1170000D01*
X1118000Y1152000D01*
G01Y1080000D02*
X1142000D01*
G01X1050000Y1560000D02*
Y1650000D01*
X1075000D01*
X1083000Y1645500D01*
X1088000Y1639500D01*
X1090000Y1627500D01*
X1088000Y1615500D01*
X1082000Y1608000D01*
X1075000Y1603500D01*
X1050000D01*
G01X1075000D02*
X1090000Y1560000D01*
G01X1118000Y1578000D02*
X1124000Y1567500D01*
X1132000Y1561500D01*
X1141000Y1560000D01*
X1149000Y1561500D01*
X1157000Y1569000D01*
X1162000Y1578000D01*
X1163000Y1587000D01*
X1161000Y1597500D01*
X1154000Y1605000D01*
X1147000Y1608000D01*
X1138000D01*
G01X1147000D02*
X1153000Y1612500D01*
X1158000Y1620000D01*
X1160000Y1629000D01*
X1158000Y1638000D01*
X1153000Y1645500D01*
X1144000Y1650000D01*
X1135000Y1648500D01*
X1126000Y1642500D01*
G01X752000D02*
X746000Y1647000D01*
X739000Y1650000D01*
X731000D01*
X722000Y1645500D01*
X715000Y1638000D01*
X710000Y1629000D01*
X706000Y1614000D01*
X705000Y1600500D01*
X707000Y1587000D01*
X710000Y1578000D01*
X716000Y1569000D01*
X723000Y1563000D01*
X730000Y1560000D01*
X737000D01*
X744000Y1563000D01*
X750000Y1567500D01*
X755000Y1573500D01*
G01X812000Y1560000D02*
Y1650000D01*
X775000Y1585500D01*
X825000D01*
G01X1432000Y122500D02*
X1426000Y127000D01*
X1419000Y130000D01*
X1411000D01*
X1402000Y125500D01*
X1395000Y118000D01*
X1390000Y109000D01*
X1386000Y94000D01*
X1385000Y80500D01*
X1387000Y67000D01*
X1390000Y58000D01*
X1396000Y49000D01*
X1403000Y43000D01*
X1410000Y40000D01*
X1417000D01*
X1424000Y43000D01*
X1430000Y47500D01*
X1435000Y53500D01*
G01X1480000Y40000D02*
Y130000D01*
X1468000Y112000D01*
G01Y40000D02*
X1492000D01*
G01X1548000D02*
X1550000Y59500D01*
X1553000Y76000D01*
X1557000Y91000D01*
X1562000Y107500D01*
X1570000Y130000D01*
X1530000D01*
G01X1168000D02*
Y65500D01*
X1172000Y52000D01*
X1180000Y43000D01*
X1190000Y40000D01*
X1200000Y43000D01*
X1208000Y52000D01*
X1212000Y65500D01*
Y130000D01*
G01X1272000Y40000D02*
Y130000D01*
X1235000Y65500D01*
X1285000D01*
G01X1380000Y600000D02*
X1290000D01*
Y625000D01*
X1294500Y633000D01*
X1300500Y638000D01*
X1312500Y640000D01*
X1324500Y638000D01*
X1332000Y632000D01*
X1336500Y625000D01*
Y600000D01*
G01Y625000D02*
X1380000Y640000D01*
G01Y690000D02*
X1290000D01*
X1308000Y678000D01*
G01X1380000D02*
Y702000D01*
G01X1366500Y738000D02*
X1374000Y744000D01*
X1378500Y751000D01*
X1380000Y760000D01*
X1377000Y769000D01*
X1371000Y776000D01*
X1360500Y781000D01*
X1348500Y782000D01*
X1336500Y780000D01*
X1329000Y775000D01*
X1323000Y768000D01*
X1321500Y761000D01*
X1323000Y754000D01*
X1329000Y745000D01*
X1290000Y748000D01*
Y775000D01*
G01X1250000Y600000D02*
X1160000D01*
Y625000D01*
X1164500Y633000D01*
X1170500Y638000D01*
X1182500Y640000D01*
X1194500Y638000D01*
X1202000Y632000D01*
X1206500Y625000D01*
Y600000D01*
G01Y625000D02*
X1250000Y640000D01*
G01Y690000D02*
X1160000D01*
X1178000Y678000D01*
G01X1250000D02*
Y702000D01*
G01X1232000Y738000D02*
X1242500Y744000D01*
X1248500Y752000D01*
X1250000Y761000D01*
X1248500Y769000D01*
X1241000Y777000D01*
X1232000Y782000D01*
X1223000Y783000D01*
X1212500Y781000D01*
X1205000Y774000D01*
X1202000Y767000D01*
Y758000D01*
G01Y767000D02*
X1197500Y773000D01*
X1190000Y778000D01*
X1181000Y780000D01*
X1172000Y778000D01*
X1164500Y773000D01*
X1160000Y764000D01*
X1161500Y755000D01*
X1167500Y746000D01*
G01X1222000Y922500D02*
X1216000Y927000D01*
X1209000Y930000D01*
X1201000D01*
X1192000Y925500D01*
X1185000Y918000D01*
X1180000Y909000D01*
X1176000Y894000D01*
X1175000Y880500D01*
X1177000Y867000D01*
X1180000Y858000D01*
X1186000Y849000D01*
X1193000Y843000D01*
X1200000Y840000D01*
X1207000D01*
X1214000Y843000D01*
X1220000Y847500D01*
X1225000Y853500D01*
G01X1253000Y850500D02*
X1260000Y843000D01*
X1268000Y840000D01*
X1276000Y843000D01*
X1283000Y852000D01*
X1288000Y865500D01*
X1290000Y879000D01*
Y895500D01*
X1288000Y909000D01*
X1283000Y921000D01*
X1277000Y927000D01*
X1270000Y930000D01*
X1262000Y927000D01*
X1256000Y921000D01*
X1252000Y912000D01*
X1250000Y900000D01*
X1252000Y889500D01*
X1257000Y879000D01*
X1263000Y873000D01*
X1270000Y871500D01*
X1278000Y874500D01*
X1284000Y882000D01*
X1290000Y895500D01*
G01X1180000Y1080000D02*
Y1170000D01*
X1205000D01*
X1213000Y1165500D01*
X1218000Y1159500D01*
X1220000Y1147500D01*
X1218000Y1135500D01*
X1212000Y1128000D01*
X1205000Y1123500D01*
X1180000D01*
G01X1205000D02*
X1220000Y1080000D01*
G01X1282000D02*
Y1170000D01*
X1245000Y1105500D01*
X1295000D01*
G01X1222000Y1042500D02*
X1216000Y1047000D01*
X1209000Y1050000D01*
X1201000D01*
X1192000Y1045500D01*
X1185000Y1038000D01*
X1180000Y1029000D01*
X1176000Y1014000D01*
X1175000Y1000500D01*
X1177000Y987000D01*
X1180000Y978000D01*
X1186000Y969000D01*
X1193000Y963000D01*
X1200000Y960000D01*
X1207000D01*
X1214000Y963000D01*
X1220000Y967500D01*
X1225000Y973500D01*
G01X1248000Y978000D02*
X1254000Y967500D01*
X1262000Y961500D01*
X1271000Y960000D01*
X1279000Y961500D01*
X1287000Y969000D01*
X1292000Y978000D01*
X1293000Y987000D01*
X1291000Y997500D01*
X1284000Y1005000D01*
X1277000Y1008000D01*
X1268000D01*
G01X1277000D02*
X1283000Y1012500D01*
X1288000Y1020000D01*
X1290000Y1029000D01*
X1288000Y1038000D01*
X1283000Y1045500D01*
X1274000Y1050000D01*
X1265000Y1048500D01*
X1256000Y1042500D01*
G01X1350000Y1570000D02*
Y1660000D01*
X1375000D01*
X1383000Y1655500D01*
X1388000Y1649500D01*
X1390000Y1637500D01*
X1388000Y1625500D01*
X1382000Y1618000D01*
X1375000Y1613500D01*
X1350000D01*
G01X1375000D02*
X1390000Y1570000D01*
G01X1421000Y1645000D02*
X1427000Y1654000D01*
X1434000Y1658500D01*
X1442000Y1660000D01*
X1452000Y1657000D01*
X1459000Y1649500D01*
X1461000Y1640500D01*
X1460000Y1631500D01*
X1456000Y1624000D01*
X1436000Y1609000D01*
X1427000Y1598500D01*
X1421000Y1583500D01*
X1419000Y1570000D01*
X1461000D01*
G01X1750000Y40000D02*
Y80500D01*
X1730000Y130000D01*
G01X1770000D02*
X1750000Y80500D01*
G01X1820000Y40000D02*
Y130000D01*
X1808000Y112000D01*
G01Y40000D02*
X1832000D01*
G01X1810000Y600000D02*
X1720000D01*
Y625000D01*
X1724500Y633000D01*
X1730500Y638000D01*
X1742500Y640000D01*
X1754500Y638000D01*
X1762000Y632000D01*
X1766500Y625000D01*
Y600000D01*
G01Y625000D02*
X1810000Y640000D01*
G01Y690000D02*
X1720000D01*
X1738000Y678000D01*
G01X1810000D02*
Y702000D01*
G01Y760000D02*
X1808500Y767000D01*
X1804000Y775000D01*
X1796500Y780000D01*
X1786000Y782000D01*
X1775500Y780000D01*
X1766500Y774000D01*
X1762000Y765000D01*
Y755000D01*
X1759000Y749000D01*
X1751500Y744000D01*
X1741000Y742000D01*
X1730500Y745000D01*
X1723000Y752000D01*
X1720000Y760000D01*
X1723000Y768000D01*
X1730500Y775000D01*
X1741000Y778000D01*
X1751500Y776000D01*
X1759000Y771000D01*
X1762000Y765000D01*
Y755000D01*
X1766500Y746000D01*
X1775500Y740000D01*
X1786000Y738000D01*
X1796500Y740000D01*
X1804000Y745000D01*
X1808500Y753000D01*
X1810000Y760000D01*
G01X2047500Y562000D02*
X2043000Y556000D01*
X2040000Y549000D01*
Y541000D01*
X2044500Y532000D01*
X2052000Y525000D01*
X2061000Y520000D01*
X2076000Y516000D01*
X2089500Y515000D01*
X2103000Y517000D01*
X2112000Y520000D01*
X2121000Y526000D01*
X2127000Y533000D01*
X2130000Y540000D01*
Y547000D01*
X2127000Y554000D01*
X2122500Y560000D01*
X2116500Y565000D01*
G01X2130000Y610000D02*
X2040000D01*
X2058000Y598000D01*
G01X2130000D02*
Y622000D01*
G01X2092500Y661000D02*
X2082000Y668000D01*
X2076000Y674000D01*
X2073000Y682000D01*
X2076000Y689000D01*
X2082000Y694000D01*
X2091000Y698000D01*
X2101500Y699000D01*
X2110500Y698000D01*
X2119500Y694000D01*
X2127000Y688000D01*
X2130000Y681000D01*
X2127000Y673000D01*
X2118000Y666000D01*
X2104500Y662000D01*
X2089500Y661000D01*
X2070000Y663000D01*
X2059500Y666000D01*
X2049000Y671000D01*
X2041500Y678000D01*
X2040000Y685000D01*
X2043000Y692000D01*
X2050500Y697000D01*
G01X2650000Y50000D02*
Y140000D01*
X2675000D01*
X2683000Y135500D01*
X2688000Y129500D01*
X2690000Y117500D01*
X2688000Y105500D01*
X2682000Y98000D01*
X2675000Y93500D01*
X2650000D01*
G01X2675000D02*
X2690000Y50000D01*
G01X2740000D02*
Y140000D01*
X2728000Y122000D01*
G01Y50000D02*
X2752000D01*
G01X2808000D02*
X2810000Y69500D01*
X2813000Y86000D01*
X2817000Y101000D01*
X2822000Y117500D01*
X2830000Y140000D01*
X2790000D01*
G01X2430000Y50000D02*
Y140000D01*
X2455000D01*
X2463000Y135500D01*
X2468000Y129500D01*
X2470000Y117500D01*
X2468000Y105500D01*
X2462000Y98000D01*
X2455000Y93500D01*
X2430000D01*
G01X2455000D02*
X2470000Y50000D01*
G01X2520000D02*
Y140000D01*
X2508000Y122000D01*
G01Y50000D02*
X2532000D01*
G01X2602000D02*
Y140000D01*
X2565000Y75500D01*
X2615000D01*
G01X2300000Y530000D02*
X2210000D01*
Y555000D01*
X2214500Y563000D01*
X2220500Y568000D01*
X2232500Y570000D01*
X2244500Y568000D01*
X2252000Y562000D01*
X2256500Y555000D01*
Y530000D01*
G01Y555000D02*
X2300000Y570000D01*
G01Y620000D02*
X2210000D01*
X2228000Y608000D01*
G01X2300000D02*
Y632000D01*
G01X2262500Y671000D02*
X2252000Y678000D01*
X2246000Y684000D01*
X2243000Y692000D01*
X2246000Y699000D01*
X2252000Y704000D01*
X2261000Y708000D01*
X2271500Y709000D01*
X2280500Y708000D01*
X2289500Y704000D01*
X2297000Y698000D01*
X2300000Y691000D01*
X2297000Y683000D01*
X2288000Y676000D01*
X2274500Y672000D01*
X2259500Y671000D01*
X2240000Y673000D01*
X2229500Y676000D01*
X2219000Y681000D01*
X2211500Y688000D01*
X2210000Y695000D01*
X2213000Y702000D01*
X2220500Y707000D01*
G01X2460000Y520000D02*
X2370000D01*
Y545000D01*
X2374500Y553000D01*
X2380500Y558000D01*
X2392500Y560000D01*
X2404500Y558000D01*
X2412000Y552000D01*
X2416500Y545000D01*
Y520000D01*
G01Y545000D02*
X2460000Y560000D01*
G01Y610000D02*
X2370000D01*
X2388000Y598000D01*
G01X2460000D02*
Y622000D01*
G01X2385000Y661000D02*
X2376000Y667000D01*
X2371500Y674000D01*
X2370000Y682000D01*
X2373000Y692000D01*
X2380500Y699000D01*
X2389500Y701000D01*
X2398500Y700000D01*
X2406000Y696000D01*
X2421000Y676000D01*
X2431500Y667000D01*
X2446500Y661000D01*
X2460000Y659000D01*
Y701000D01*
G01X2237500Y882000D02*
X2233000Y876000D01*
X2230000Y869000D01*
Y861000D01*
X2234500Y852000D01*
X2242000Y845000D01*
X2251000Y840000D01*
X2266000Y836000D01*
X2279500Y835000D01*
X2293000Y837000D01*
X2302000Y840000D01*
X2311000Y846000D01*
X2317000Y853000D01*
X2320000Y860000D01*
Y867000D01*
X2317000Y874000D01*
X2312500Y880000D01*
X2306500Y885000D01*
G01X2320000Y930000D02*
X2230000D01*
X2248000Y918000D01*
G01X2320000D02*
Y942000D01*
G01X2245000Y981000D02*
X2236000Y987000D01*
X2231500Y994000D01*
X2230000Y1002000D01*
X2233000Y1012000D01*
X2240500Y1019000D01*
X2249500Y1021000D01*
X2258500Y1020000D01*
X2266000Y1016000D01*
X2281000Y996000D01*
X2291500Y987000D01*
X2306500Y981000D01*
X2320000Y979000D01*
Y1021000D01*
G01X2233000Y1400000D02*
Y1335500D01*
X2237000Y1322000D01*
X2245000Y1313000D01*
X2255000Y1310000D01*
X2265000Y1313000D01*
X2273000Y1322000D01*
X2277000Y1335500D01*
Y1400000D01*
G01X2306000Y1385000D02*
X2312000Y1394000D01*
X2319000Y1398500D01*
X2327000Y1400000D01*
X2337000Y1397000D01*
X2344000Y1389500D01*
X2346000Y1380500D01*
X2345000Y1371500D01*
X2341000Y1364000D01*
X2321000Y1349000D01*
X2312000Y1338500D01*
X2306000Y1323500D01*
X2304000Y1310000D01*
X2346000D01*
G01X2908000Y50000D02*
Y140000D01*
X2928000D01*
X2936000Y135500D01*
X2942000Y129500D01*
X2947000Y120500D01*
X2951000Y110000D01*
X2952000Y95000D01*
X2951000Y80000D01*
X2947000Y69500D01*
X2942000Y60500D01*
X2936000Y54500D01*
X2928000Y50000D01*
X2908000D01*
G01X3000000D02*
Y140000D01*
X2988000Y122000D01*
G01Y50000D02*
X3012000D01*
G01X3234000Y749260D02*
X3312740D01*
Y724920D01*
X3308800Y717130D01*
X3303550Y712260D01*
X3293050Y710320D01*
X3282560Y712260D01*
X3276000Y718110D01*
X3272060Y724920D01*
Y749260D01*
G01Y724920D02*
X3234000Y710320D01*
G01X2819740Y1021260D02*
X2741000D01*
Y982320D01*
G01X3128000Y1600000D02*
Y1690000D01*
X3148000D01*
X3156000Y1685500D01*
X3162000Y1679500D01*
X3167000Y1670500D01*
X3171000Y1660000D01*
X3172000Y1645000D01*
X3171000Y1630000D01*
X3167000Y1619500D01*
X3162000Y1610500D01*
X3156000Y1604500D01*
X3148000Y1600000D01*
X3128000D01*
G01X3201000Y1675000D02*
X3207000Y1684000D01*
X3214000Y1688500D01*
X3222000Y1690000D01*
X3232000Y1687000D01*
X3239000Y1679500D01*
X3241000Y1670500D01*
X3240000Y1661500D01*
X3236000Y1654000D01*
X3216000Y1639000D01*
X3207000Y1628500D01*
X3201000Y1613500D01*
X3199000Y1600000D01*
X3241000D01*
G01X2910000D02*
Y1690000D01*
X2935000D01*
X2943000Y1685500D01*
X2948000Y1679500D01*
X2950000Y1667500D01*
X2948000Y1655500D01*
X2942000Y1648000D01*
X2935000Y1643500D01*
X2910000D01*
G01X2935000D02*
X2950000Y1600000D01*
G01X2981000Y1675000D02*
X2987000Y1684000D01*
X2994000Y1688500D01*
X3002000Y1690000D01*
X3012000Y1687000D01*
X3019000Y1679500D01*
X3021000Y1670500D01*
X3020000Y1661500D01*
X3016000Y1654000D01*
X2996000Y1639000D01*
X2987000Y1628500D01*
X2981000Y1613500D01*
X2979000Y1600000D01*
X3021000D01*
G01X3070000Y1690000D02*
X3062000Y1687000D01*
X3056000Y1679500D01*
X3052000Y1670500D01*
X3049000Y1658500D01*
X3048000Y1645000D01*
X3049000Y1631500D01*
X3052000Y1619500D01*
X3056000Y1610500D01*
X3062000Y1603000D01*
X3070000Y1600000D01*
X3078000Y1603000D01*
X3084000Y1610500D01*
X3088000Y1619500D01*
X3091000Y1631500D01*
X3092000Y1645000D01*
X3091000Y1658500D01*
X3088000Y1670500D01*
X3084000Y1679500D01*
X3078000Y1687000D01*
X3070000Y1690000D01*
G01X3477370Y978950D02*
Y959470D01*
X3453750D01*
X3445870Y965320D01*
X3440620Y972130D01*
X3438000Y981870D01*
X3440620Y991610D01*
X3445870Y998420D01*
X3453750Y1004260D01*
X3462930Y1008160D01*
X3473430Y1010110D01*
X3482620D01*
X3490490Y1008160D01*
X3499680Y1004260D01*
X3507550Y998420D01*
X3512800Y992580D01*
X3516740Y984790D01*
Y977970D01*
X3514120Y970190D01*
X3508870Y964340D01*
G01X3758000Y470000D02*
Y405500D01*
X3762000Y392000D01*
X3770000Y383000D01*
X3780000Y380000D01*
X3790000Y383000D01*
X3798000Y392000D01*
X3802000Y405500D01*
Y470000D01*
G01X3850000Y380000D02*
Y470000D01*
X3838000Y452000D01*
G01Y380000D02*
X3862000D01*
G01X340000Y635000D02*
G03I-80000J0D01*
G01Y1085000D02*
G03I-80000J0D01*
G54D13*
G01X2953500Y370480D02*
X2890000Y306980D01*
X2826500Y370480D01*
X2953500D01*
X2935720Y352700D01*
X2851900D01*
X2864600Y340000D01*
X2915400D01*
X2902700Y327300D01*
X2877300D01*
G01X3126500Y1359520D02*
X3190000Y1423020D01*
X3253500Y1359520D01*
X3126500D01*
X3144280Y1377300D01*
X3228100D01*
X3215400Y1390000D01*
X3164600D01*
X3177300Y1402700D01*
X3202700D01*
M02*
