G04 ================== begin FILE IDENTIFICATION RECORD ==================*
G04 Layout Name:  USBAUDIO_TEST_V10A.brd*
G04 Film Name:    SilkScreen_Bottom*
G04 File Format:  Gerber RS274X*
G04 File Origin:  Cadence Allegro 16.6-2015-S088*
G04 Origin Date:  Thu Aug 31 10:09:24 2017*
G04 *
G04 Layer:  BOARD GEOMETRY/OUTLINE*
G04 Layer:  REF DES/SILKSCREEN_BOTTOM*
G04 Layer:  PACKAGE GEOMETRY/SILKSCREEN_BOTTOM*
G04 Layer:  BOARD GEOMETRY/SILKSCREEN_BOTTOM*
G04 *
G04 Offset:    (0.0000 0.0000)*
G04 Mirror:    No*
G04 Mode:      Positive*
G04 Rotation:  0*
G04 FullContactRelief:  No*
G04 UndefLineWidth:     0.1524*
G04 ================== end FILE IDENTIFICATION RECORD ====================*
%FSLAX55Y55*MOMM*%
%IR0*IPPOS*OFA0.00000B0.00000*MIA0B0*SFA1.00000B1.00000*%
%ADD10C,.2032*%
%ADD11C,.254*%
%ADD12C,.1524*%
G75*
%LPD*%
G75*
G36*
G01X2707080Y660120D02*
X2647040Y720170D01*
X2767130D01*
X2707080Y660120D01*
G37*
G36*
G01X2270000Y970000D02*
G03I-30000J0D01*
G37*
G36*
G01X2707080Y1370120D02*
X2647040Y1430170D01*
X2767130D01*
X2707080Y1370120D01*
G37*
G54D10*
G01X60300Y721500D02*
G02Y848500I71651J63500D01*
G01X339700Y721500D02*
X60300D01*
G01Y848500D02*
X339700D01*
G01X342240Y721500D02*
G03Y848500I-73330J63500D01*
G01X339700Y871500D02*
Y998500D01*
G01D02*
X60300D01*
Y871500D01*
X339700D01*
G01X999700Y716500D02*
Y843500D01*
G01D02*
X720300D01*
Y716500D01*
X999700D01*
G01X720300Y593500D02*
X999700D01*
G01Y466500D02*
X720300D01*
G01X717760Y593500D02*
G03Y466500I73330J-63500D01*
G01X999700Y593500D02*
G02Y466500I-71651J-63500D01*
G01Y1016500D02*
Y1143500D01*
G01D02*
X720300D01*
Y1016500D01*
X999700D01*
G01Y866500D02*
Y993500D01*
G01D02*
X720300D01*
Y866500D01*
X999700D01*
G01X720300Y1293500D02*
X999700D01*
G01Y1166500D02*
X720300D01*
G01X717760Y1293500D02*
G03Y1166500I73330J-63500D01*
G01X999700Y1293500D02*
G02Y1166500I-71651J-63500D01*
G01X2046500Y1280300D02*
Y1559700D01*
G01X2173500Y1280300D02*
G02X2046500I-63500J71651D01*
G01X1896500D02*
Y1559700D01*
G01X2023500D02*
Y1280300D01*
G01X1896500Y1277760D02*
G03X2023500I63500J73330D01*
G01X1853500Y1559700D02*
Y1280300D01*
G01X1726500D02*
Y1559700D01*
G01X1853500Y1280300D02*
G02X1726500I-63500J71651D01*
G01X2173500Y1562240D02*
G03X2046500I-63500J-73330D01*
G01X1896500Y1559700D02*
G02X2023500I63500J-71651D01*
G01X1853500Y1562240D02*
G03X1726500I-63500J-73330D01*
G01X2346500Y220300D02*
X2473500D01*
G01D02*
Y499700D01*
X2346500D01*
Y220300D01*
G01X2939700Y253500D02*
X2660300D01*
Y126500D01*
X2939700D01*
G01X2346500Y540300D02*
Y819700D01*
G01X2473500D02*
Y540300D01*
G01X2346500Y537760D02*
G03X2473500I63500J73330D01*
G01X2346500Y819700D02*
G02X2473500I63500J-71651D01*
G01X2346500Y1479700D02*
Y1200300D01*
X2473500D01*
Y1479700D01*
G01X2196500Y1280300D02*
X2323500D01*
G01D02*
Y1559700D01*
X2196500D01*
Y1280300D01*
G01X2173500Y1559700D02*
Y1280300D01*
G01X2473500Y1159700D02*
Y880300D01*
G01X2346500D02*
Y1159700D01*
G01X2473500Y1162240D02*
G03X2346500I-63500J-73330D01*
G01X2473500Y880300D02*
G02X2346500I-63500J71651D01*
G01X2473500Y1479700D02*
X2346500D01*
G01X2929700Y1583500D02*
X2650300D01*
Y1456500D01*
X2929700D01*
G01X3200300Y253500D02*
Y126500D01*
G01D02*
X3479700D01*
Y253500D01*
X3200300D01*
G01X2939700Y126500D02*
Y253500D01*
G01X2940000Y850000D02*
G03I-70000J0D01*
G01X2929700Y1456500D02*
Y1583500D01*
G01X3180300D02*
Y1456500D01*
G01D02*
X3459700D01*
Y1583500D01*
X3180300D01*
G01X3540000Y850000D02*
G03I-70000J0D01*
G54D11*
G01X670000Y280000D02*
X1050000D01*
Y440000D01*
X670000D01*
Y280000D01*
G01X1330000Y1030000D02*
Y350000D01*
X2010000D01*
Y1030000D01*
X1330000D01*
G01X2577100Y280000D02*
Y720000D01*
G01X2537100Y280000D02*
Y720000D01*
X3567100D01*
Y280000D01*
X2537100D01*
G01X2461970Y432640D02*
Y562740D01*
G01X2401930Y492680D02*
X2522020D01*
G01X2461970Y1142640D02*
Y1272740D01*
G01X2401930Y1202680D02*
X2522020D01*
G01X2577100Y990000D02*
Y1430000D01*
G01X2537100Y990000D02*
Y1430000D01*
X3567100D01*
Y990000D01*
X2537100D01*
G54D12*
G01X250000Y0D02*
X3600000D01*
G03X3900000Y300000I0J300000D01*
G01Y1420000D01*
G03X3600000Y1720000I-300000J0D01*
G01X250000D01*
G03X0Y1470000I0J-250000D01*
G01Y250000D01*
G03X250000Y0I250000J0D01*
G01X168000Y542500D02*
X174000Y547000D01*
X181000Y550000D01*
X189000D01*
X198000Y545500D01*
X205000Y538000D01*
X210000Y529000D01*
X214000Y514000D01*
X215000Y500500D01*
X213000Y487000D01*
X210000Y478000D01*
X204000Y469000D01*
X197000Y463000D01*
X190000Y460000D01*
X183000D01*
X176000Y463000D01*
X170000Y467500D01*
X165000Y473500D01*
G01X139000Y535000D02*
X133000Y544000D01*
X126000Y548500D01*
X118000Y550000D01*
X108000Y547000D01*
X101000Y539500D01*
X99000Y530500D01*
X100000Y521500D01*
X104000Y514000D01*
X124000Y499000D01*
X133000Y488500D01*
X139000Y473500D01*
X141000Y460000D01*
X99000D01*
G01X50000D02*
Y550000D01*
X62000Y532000D01*
G01Y460000D02*
X38000D01*
G01X210000Y1180000D02*
Y1270000D01*
X185000D01*
X177000Y1265500D01*
X172000Y1259500D01*
X170000Y1247500D01*
X172000Y1235500D01*
X178000Y1228000D01*
X185000Y1223500D01*
X210000D01*
G01X185000D02*
X170000Y1180000D01*
G01X139000Y1255000D02*
X133000Y1264000D01*
X126000Y1268500D01*
X118000Y1270000D01*
X108000Y1267000D01*
X101000Y1259500D01*
X99000Y1250500D01*
X100000Y1241500D01*
X104000Y1234000D01*
X124000Y1219000D01*
X133000Y1208500D01*
X139000Y1193500D01*
X141000Y1180000D01*
X99000D01*
G01X72000Y1198000D02*
X66000Y1187500D01*
X58000Y1181500D01*
X49000Y1180000D01*
X41000Y1181500D01*
X33000Y1189000D01*
X28000Y1198000D01*
X27000Y1207000D01*
X29000Y1217500D01*
X36000Y1225000D01*
X43000Y1228000D01*
X52000D01*
G01X43000D02*
X37000Y1232500D01*
X32000Y1240000D01*
X30000Y1249000D01*
X32000Y1258000D01*
X37000Y1265500D01*
X46000Y1270000D01*
X55000Y1268500D01*
X64000Y1262500D01*
G01X335000Y635000D02*
G03I-75000J0D01*
G01Y1085000D02*
G03I-75000J0D01*
G01X1000000Y120000D02*
Y30000D01*
X960000D01*
G01X910000D02*
Y120000D01*
X922000Y102000D01*
G01Y30000D02*
X898000D01*
G01X860000Y309200D02*
Y410800D01*
G01X968000Y232500D02*
X974000Y237000D01*
X981000Y240000D01*
X989000D01*
X998000Y235500D01*
X1005000Y228000D01*
X1010000Y219000D01*
X1014000Y204000D01*
X1015000Y190500D01*
X1013000Y177000D01*
X1010000Y168000D01*
X1004000Y159000D01*
X997000Y153000D01*
X990000Y150000D01*
X983000D01*
X976000Y153000D01*
X970000Y157500D01*
X965000Y163500D01*
G01X939000Y225000D02*
X933000Y234000D01*
X926000Y238500D01*
X918000Y240000D01*
X908000Y237000D01*
X901000Y229500D01*
X899000Y220500D01*
X900000Y211500D01*
X904000Y204000D01*
X924000Y189000D01*
X933000Y178500D01*
X939000Y163500D01*
X941000Y150000D01*
X899000D01*
G01X869000Y225000D02*
X863000Y234000D01*
X856000Y238500D01*
X848000Y240000D01*
X838000Y237000D01*
X831000Y229500D01*
X829000Y220500D01*
X830000Y211500D01*
X834000Y204000D01*
X854000Y189000D01*
X863000Y178500D01*
X869000Y163500D01*
X871000Y150000D01*
X829000D01*
G01X970000Y610000D02*
Y700000D01*
X945000D01*
X937000Y695500D01*
X932000Y689500D01*
X930000Y677500D01*
X932000Y665500D01*
X938000Y658000D01*
X945000Y653500D01*
X970000D01*
G01X945000D02*
X930000Y610000D01*
G01X880000D02*
Y700000D01*
X892000Y682000D01*
G01Y610000D02*
X868000D01*
G01X827000Y620500D02*
X820000Y613000D01*
X812000Y610000D01*
X804000Y613000D01*
X797000Y622000D01*
X792000Y635500D01*
X790000Y649000D01*
Y665500D01*
X792000Y679000D01*
X797000Y691000D01*
X803000Y697000D01*
X810000Y700000D01*
X818000Y697000D01*
X824000Y691000D01*
X828000Y682000D01*
X830000Y670000D01*
X828000Y659500D01*
X823000Y649000D01*
X817000Y643000D01*
X810000Y641500D01*
X802000Y644500D01*
X796000Y652000D01*
X790000Y665500D01*
G01X970000Y1320000D02*
Y1410000D01*
X945000D01*
X937000Y1405500D01*
X932000Y1399500D01*
X930000Y1387500D01*
X932000Y1375500D01*
X938000Y1368000D01*
X945000Y1363500D01*
X970000D01*
G01X945000D02*
X930000Y1320000D01*
G01X899000Y1395000D02*
X893000Y1404000D01*
X886000Y1408500D01*
X878000Y1410000D01*
X868000Y1407000D01*
X861000Y1399500D01*
X859000Y1390500D01*
X860000Y1381500D01*
X864000Y1374000D01*
X884000Y1359000D01*
X893000Y1348500D01*
X899000Y1333500D01*
X901000Y1320000D01*
X859000D01*
G01X810000D02*
Y1410000D01*
X822000Y1392000D01*
G01Y1320000D02*
X798000D01*
G01X970000Y1440000D02*
Y1530000D01*
X945000D01*
X937000Y1525500D01*
X932000Y1519500D01*
X930000Y1507500D01*
X932000Y1495500D01*
X938000Y1488000D01*
X945000Y1483500D01*
X970000D01*
G01X945000D02*
X930000Y1440000D01*
G01X899000Y1515000D02*
X893000Y1524000D01*
X886000Y1528500D01*
X878000Y1530000D01*
X868000Y1527000D01*
X861000Y1519500D01*
X859000Y1510500D01*
X860000Y1501500D01*
X864000Y1494000D01*
X884000Y1479000D01*
X893000Y1468500D01*
X899000Y1453500D01*
X901000Y1440000D01*
X859000D01*
G01X829000Y1515000D02*
X823000Y1524000D01*
X816000Y1528500D01*
X808000Y1530000D01*
X798000Y1527000D01*
X791000Y1519500D01*
X789000Y1510500D01*
X790000Y1501500D01*
X794000Y1494000D01*
X814000Y1479000D01*
X823000Y1468500D01*
X829000Y1453500D01*
X831000Y1440000D01*
X789000D01*
G01X928000Y1642500D02*
X934000Y1647000D01*
X941000Y1650000D01*
X949000D01*
X958000Y1645500D01*
X965000Y1638000D01*
X970000Y1629000D01*
X974000Y1614000D01*
X975000Y1600500D01*
X973000Y1587000D01*
X970000Y1578000D01*
X964000Y1569000D01*
X957000Y1563000D01*
X950000Y1560000D01*
X943000D01*
X936000Y1563000D01*
X930000Y1567500D01*
X925000Y1573500D01*
G01X880000Y1560000D02*
Y1650000D01*
X892000Y1632000D01*
G01Y1560000D02*
X868000D01*
G01X832000Y1578000D02*
X826000Y1567500D01*
X818000Y1561500D01*
X809000Y1560000D01*
X801000Y1561500D01*
X793000Y1569000D01*
X788000Y1578000D01*
X787000Y1587000D01*
X789000Y1597500D01*
X796000Y1605000D01*
X803000Y1608000D01*
X812000D01*
G01X803000D02*
X797000Y1612500D01*
X792000Y1620000D01*
X790000Y1629000D01*
X792000Y1638000D01*
X797000Y1645500D01*
X806000Y1650000D01*
X815000Y1648500D01*
X824000Y1642500D01*
G01X1600000Y1330000D02*
X1690000D01*
Y1355000D01*
X1685500Y1363000D01*
X1679500Y1368000D01*
X1667500Y1370000D01*
X1655500Y1368000D01*
X1648000Y1362000D01*
X1643500Y1355000D01*
Y1330000D01*
G01Y1355000D02*
X1600000Y1370000D01*
G01X1613500Y1398000D02*
X1606000Y1404000D01*
X1601500Y1411000D01*
X1600000Y1420000D01*
X1603000Y1429000D01*
X1609000Y1436000D01*
X1619500Y1441000D01*
X1631500Y1442000D01*
X1643500Y1440000D01*
X1651000Y1435000D01*
X1657000Y1428000D01*
X1658500Y1421000D01*
X1657000Y1414000D01*
X1651000Y1405000D01*
X1690000Y1408000D01*
Y1435000D01*
G01X1562500Y1372000D02*
X1567000Y1366000D01*
X1570000Y1359000D01*
Y1351000D01*
X1565500Y1342000D01*
X1558000Y1335000D01*
X1549000Y1330000D01*
X1534000Y1326000D01*
X1520500Y1325000D01*
X1507000Y1327000D01*
X1498000Y1330000D01*
X1489000Y1336000D01*
X1483000Y1343000D01*
X1480000Y1350000D01*
Y1357000D01*
X1483000Y1364000D01*
X1487500Y1370000D01*
X1493500Y1375000D01*
G01X1480000Y1420000D02*
X1481500Y1427000D01*
X1486000Y1435000D01*
X1493500Y1440000D01*
X1504000Y1442000D01*
X1514500Y1440000D01*
X1523500Y1434000D01*
X1528000Y1425000D01*
Y1415000D01*
X1531000Y1409000D01*
X1538500Y1404000D01*
X1549000Y1402000D01*
X1559500Y1405000D01*
X1567000Y1412000D01*
X1570000Y1420000D01*
X1567000Y1428000D01*
X1559500Y1435000D01*
X1549000Y1438000D01*
X1538500Y1436000D01*
X1531000Y1431000D01*
X1528000Y1425000D01*
Y1415000D01*
X1523500Y1406000D01*
X1514500Y1400000D01*
X1504000Y1398000D01*
X1493500Y1400000D01*
X1486000Y1405000D01*
X1481500Y1413000D01*
X1480000Y1420000D01*
G01X1442500Y1372000D02*
X1447000Y1366000D01*
X1450000Y1359000D01*
Y1351000D01*
X1445500Y1342000D01*
X1438000Y1335000D01*
X1429000Y1330000D01*
X1414000Y1326000D01*
X1400500Y1325000D01*
X1387000Y1327000D01*
X1378000Y1330000D01*
X1369000Y1336000D01*
X1363000Y1343000D01*
X1360000Y1350000D01*
Y1357000D01*
X1363000Y1364000D01*
X1367500Y1370000D01*
X1373500Y1375000D01*
G01X1360000Y1420000D02*
X1450000D01*
X1432000Y1408000D01*
G01X1360000D02*
Y1432000D01*
G01X1450000Y1490000D02*
X1447000Y1482000D01*
X1439500Y1476000D01*
X1430500Y1472000D01*
X1418500Y1469000D01*
X1405000Y1468000D01*
X1391500Y1469000D01*
X1379500Y1472000D01*
X1370500Y1476000D01*
X1363000Y1482000D01*
X1360000Y1490000D01*
X1363000Y1498000D01*
X1370500Y1504000D01*
X1379500Y1508000D01*
X1391500Y1511000D01*
X1405000Y1512000D01*
X1418500Y1511000D01*
X1430500Y1508000D01*
X1439500Y1504000D01*
X1447000Y1498000D01*
X1450000Y1490000D01*
G01X1322500Y1372000D02*
X1327000Y1366000D01*
X1330000Y1359000D01*
Y1351000D01*
X1325500Y1342000D01*
X1318000Y1335000D01*
X1309000Y1330000D01*
X1294000Y1326000D01*
X1280500Y1325000D01*
X1267000Y1327000D01*
X1258000Y1330000D01*
X1249000Y1336000D01*
X1243000Y1343000D01*
X1240000Y1350000D01*
Y1357000D01*
X1243000Y1364000D01*
X1247500Y1370000D01*
X1253500Y1375000D01*
G01X1240000Y1420000D02*
X1330000D01*
X1312000Y1408000D01*
G01X1240000D02*
Y1432000D01*
G01Y1502000D02*
X1330000D01*
X1265500Y1465000D01*
Y1515000D01*
G01X1972000Y120000D02*
Y55500D01*
X1968000Y42000D01*
X1960000Y33000D01*
X1950000Y30000D01*
X1940000Y33000D01*
X1932000Y42000D01*
X1928000Y55500D01*
Y120000D01*
G01X1902000Y48000D02*
X1896000Y37500D01*
X1888000Y31500D01*
X1879000Y30000D01*
X1871000Y31500D01*
X1863000Y39000D01*
X1858000Y48000D01*
X1857000Y57000D01*
X1859000Y67500D01*
X1866000Y75000D01*
X1873000Y78000D01*
X1882000D01*
G01X1873000D02*
X1867000Y82500D01*
X1862000Y90000D01*
X1860000Y99000D01*
X1862000Y108000D01*
X1867000Y115500D01*
X1876000Y120000D01*
X1885000Y118500D01*
X1894000Y112500D01*
G01X2220000Y210000D02*
X2310000D01*
Y235000D01*
X2305500Y243000D01*
X2299500Y248000D01*
X2287500Y250000D01*
X2275500Y248000D01*
X2268000Y242000D01*
X2263500Y235000D01*
Y210000D01*
G01Y235000D02*
X2220000Y250000D01*
G01X2257500Y281000D02*
X2268000Y288000D01*
X2274000Y294000D01*
X2277000Y302000D01*
X2274000Y309000D01*
X2268000Y314000D01*
X2259000Y318000D01*
X2248500Y319000D01*
X2239500Y318000D01*
X2230500Y314000D01*
X2223000Y308000D01*
X2220000Y301000D01*
X2223000Y293000D01*
X2232000Y286000D01*
X2245500Y282000D01*
X2260500Y281000D01*
X2280000Y283000D01*
X2290500Y286000D01*
X2301000Y291000D01*
X2308500Y298000D01*
X2310000Y305000D01*
X2307000Y312000D01*
X2299500Y317000D01*
G01X2620000Y140000D02*
Y230000D01*
X2595000D01*
X2587000Y225500D01*
X2582000Y219500D01*
X2580000Y207500D01*
X2582000Y195500D01*
X2588000Y188000D01*
X2595000Y183500D01*
X2620000D01*
G01X2595000D02*
X2580000Y140000D01*
G01X2530000D02*
X2523000Y141500D01*
X2515000Y146000D01*
X2510000Y153500D01*
X2508000Y164000D01*
X2510000Y174500D01*
X2516000Y183500D01*
X2525000Y188000D01*
X2535000D01*
X2541000Y191000D01*
X2546000Y198500D01*
X2548000Y209000D01*
X2545000Y219500D01*
X2538000Y227000D01*
X2530000Y230000D01*
X2522000Y227000D01*
X2515000Y219500D01*
X2512000Y209000D01*
X2514000Y198500D01*
X2519000Y191000D01*
X2525000Y188000D01*
X2535000D01*
X2544000Y183500D01*
X2550000Y174500D01*
X2552000Y164000D01*
X2550000Y153500D01*
X2545000Y146000D01*
X2537000Y141500D01*
X2530000Y140000D01*
G01X2638000Y832500D02*
X2644000Y837000D01*
X2651000Y840000D01*
X2659000D01*
X2668000Y835500D01*
X2675000Y828000D01*
X2680000Y819000D01*
X2684000Y804000D01*
X2685000Y790500D01*
X2683000Y777000D01*
X2680000Y768000D01*
X2674000Y759000D01*
X2667000Y753000D01*
X2660000Y750000D01*
X2653000D01*
X2646000Y753000D01*
X2640000Y757500D01*
X2635000Y763500D01*
G01X2612000D02*
X2606000Y756000D01*
X2599000Y751500D01*
X2590000Y750000D01*
X2581000Y753000D01*
X2574000Y759000D01*
X2569000Y769500D01*
X2568000Y781500D01*
X2570000Y793500D01*
X2575000Y801000D01*
X2582000Y807000D01*
X2589000Y808500D01*
X2596000Y807000D01*
X2605000Y801000D01*
X2602000Y840000D01*
X2575000D01*
G01X2638000Y952500D02*
X2644000Y957000D01*
X2651000Y960000D01*
X2659000D01*
X2668000Y955500D01*
X2675000Y948000D01*
X2680000Y939000D01*
X2684000Y924000D01*
X2685000Y910500D01*
X2683000Y897000D01*
X2680000Y888000D01*
X2674000Y879000D01*
X2667000Y873000D01*
X2660000Y870000D01*
X2653000D01*
X2646000Y873000D01*
X2640000Y877500D01*
X2635000Y883500D01*
G01X2609000Y945000D02*
X2603000Y954000D01*
X2596000Y958500D01*
X2588000Y960000D01*
X2578000Y957000D01*
X2571000Y949500D01*
X2569000Y940500D01*
X2570000Y931500D01*
X2574000Y924000D01*
X2594000Y909000D01*
X2603000Y898500D01*
X2609000Y883500D01*
X2611000Y870000D01*
X2569000D01*
G01X2302500Y402000D02*
X2307000Y396000D01*
X2310000Y389000D01*
Y381000D01*
X2305500Y372000D01*
X2298000Y365000D01*
X2289000Y360000D01*
X2274000Y356000D01*
X2260500Y355000D01*
X2247000Y357000D01*
X2238000Y360000D01*
X2229000Y366000D01*
X2223000Y373000D01*
X2220000Y380000D01*
Y387000D01*
X2223000Y394000D01*
X2227500Y400000D01*
X2233500Y405000D01*
G01X2257500Y431000D02*
X2268000Y438000D01*
X2274000Y444000D01*
X2277000Y452000D01*
X2274000Y459000D01*
X2268000Y464000D01*
X2259000Y468000D01*
X2248500Y469000D01*
X2239500Y468000D01*
X2230500Y464000D01*
X2223000Y458000D01*
X2220000Y451000D01*
X2223000Y443000D01*
X2232000Y436000D01*
X2245500Y432000D01*
X2260500Y431000D01*
X2280000Y433000D01*
X2290500Y436000D01*
X2301000Y441000D01*
X2308500Y448000D01*
X2310000Y455000D01*
X2307000Y462000D01*
X2299500Y467000D01*
G01X2220000Y1140000D02*
X2310000D01*
Y1165000D01*
X2305500Y1173000D01*
X2299500Y1178000D01*
X2287500Y1180000D01*
X2275500Y1178000D01*
X2268000Y1172000D01*
X2263500Y1165000D01*
Y1140000D01*
G01Y1165000D02*
X2220000Y1180000D01*
G01Y1228000D02*
X2239500Y1230000D01*
X2256000Y1233000D01*
X2271000Y1237000D01*
X2287500Y1242000D01*
X2310000Y1250000D01*
Y1210000D01*
G01X2302500Y1042000D02*
X2307000Y1036000D01*
X2310000Y1029000D01*
Y1021000D01*
X2305500Y1012000D01*
X2298000Y1005000D01*
X2289000Y1000000D01*
X2274000Y996000D01*
X2260500Y995000D01*
X2247000Y997000D01*
X2238000Y1000000D01*
X2229000Y1006000D01*
X2223000Y1013000D01*
X2220000Y1020000D01*
Y1027000D01*
X2223000Y1034000D01*
X2227500Y1040000D01*
X2233500Y1045000D01*
G01X2220000Y1088000D02*
X2239500Y1090000D01*
X2256000Y1093000D01*
X2271000Y1097000D01*
X2287500Y1102000D01*
X2310000Y1110000D01*
Y1070000D01*
G01X2610000Y1480000D02*
Y1570000D01*
X2585000D01*
X2577000Y1565500D01*
X2572000Y1559500D01*
X2570000Y1547500D01*
X2572000Y1535500D01*
X2578000Y1528000D01*
X2585000Y1523500D01*
X2610000D01*
G01X2585000D02*
X2570000Y1480000D01*
G01X2537000Y1490500D02*
X2530000Y1483000D01*
X2522000Y1480000D01*
X2514000Y1483000D01*
X2507000Y1492000D01*
X2502000Y1505500D01*
X2500000Y1519000D01*
Y1535500D01*
X2502000Y1549000D01*
X2507000Y1561000D01*
X2513000Y1567000D01*
X2520000Y1570000D01*
X2528000Y1567000D01*
X2534000Y1561000D01*
X2538000Y1552000D01*
X2540000Y1540000D01*
X2538000Y1529500D01*
X2533000Y1519000D01*
X2527000Y1513000D01*
X2520000Y1511500D01*
X2512000Y1514500D01*
X2506000Y1522000D01*
X2500000Y1535500D01*
G01X3170000Y140000D02*
Y230000D01*
X3145000D01*
X3137000Y225500D01*
X3132000Y219500D01*
X3130000Y207500D01*
X3132000Y195500D01*
X3138000Y188000D01*
X3145000Y183500D01*
X3170000D01*
G01X3145000D02*
X3130000Y140000D01*
G01X3080000D02*
Y230000D01*
X3092000Y212000D01*
G01Y140000D02*
X3068000D01*
G01X3010000Y230000D02*
X3018000Y227000D01*
X3024000Y219500D01*
X3028000Y210500D01*
X3031000Y198500D01*
X3032000Y185000D01*
X3031000Y171500D01*
X3028000Y159500D01*
X3024000Y150500D01*
X3018000Y143000D01*
X3010000Y140000D01*
X3002000Y143000D01*
X2996000Y150500D01*
X2992000Y159500D01*
X2989000Y171500D01*
X2988000Y185000D01*
X2989000Y198500D01*
X2992000Y210500D01*
X2996000Y219500D01*
X3002000Y227000D01*
X3010000Y230000D01*
G01X3150000Y1480000D02*
Y1570000D01*
X3125000D01*
X3117000Y1565500D01*
X3112000Y1559500D01*
X3110000Y1547500D01*
X3112000Y1535500D01*
X3118000Y1528000D01*
X3125000Y1523500D01*
X3150000D01*
G01X3125000D02*
X3110000Y1480000D01*
G01X3060000D02*
Y1570000D01*
X3072000Y1552000D01*
G01Y1480000D02*
X3048000D01*
G01X2990000D02*
Y1570000D01*
X3002000Y1552000D01*
G01Y1480000D02*
X2978000D01*
G01X3610000Y1472000D02*
X3674500D01*
X3688000Y1468000D01*
X3697000Y1460000D01*
X3700000Y1450000D01*
X3697000Y1440000D01*
X3688000Y1432000D01*
X3674500Y1428000D01*
X3610000D01*
G01X3688000Y1401000D02*
X3695500Y1393000D01*
X3700000Y1384000D01*
Y1376000D01*
X3695500Y1368000D01*
X3688000Y1362000D01*
X3677500Y1359000D01*
X3667000Y1361000D01*
X3658000Y1366000D01*
X3652000Y1375000D01*
X3649000Y1387000D01*
X3643000Y1394000D01*
X3632500Y1397000D01*
X3622000Y1395000D01*
X3614500Y1390000D01*
X3610000Y1383000D01*
Y1376000D01*
X3613000Y1369000D01*
X3620500Y1363000D01*
G01X3652000Y1302000D02*
X3647500Y1298000D01*
X3640000Y1295000D01*
X3629500Y1293000D01*
X3620500Y1295000D01*
X3614500Y1299000D01*
X3610000Y1306000D01*
Y1333000D01*
X3700000D01*
Y1300000D01*
X3694000Y1293000D01*
X3685000Y1289000D01*
X3674500Y1287000D01*
X3664000Y1289000D01*
X3655000Y1295000D01*
X3652000Y1302000D01*
Y1333000D01*
G01X3700000Y1265000D02*
X3610000Y1240000D01*
X3700000Y1215000D01*
G01X3668500Y1224000D02*
Y1256000D01*
G01X3610000Y1192000D02*
X3674500D01*
X3688000Y1188000D01*
X3697000Y1180000D01*
X3700000Y1170000D01*
X3697000Y1160000D01*
X3688000Y1152000D01*
X3674500Y1148000D01*
X3610000D01*
G01X3700000Y1122000D02*
X3610000D01*
Y1102000D01*
X3614500Y1094000D01*
X3620500Y1088000D01*
X3629500Y1083000D01*
X3640000Y1079000D01*
X3655000Y1078000D01*
X3670000Y1079000D01*
X3680500Y1083000D01*
X3689500Y1088000D01*
X3695500Y1094000D01*
X3700000Y1102000D01*
Y1122000D01*
G01X3610000Y1042000D02*
Y1018000D01*
G01Y1030000D02*
X3700000D01*
G01Y1042000D02*
Y1018000D01*
G01Y960000D02*
X3698500Y968000D01*
X3692500Y975000D01*
X3683500Y981000D01*
X3673000Y985000D01*
X3661000Y987000D01*
X3649000D01*
X3637000Y985000D01*
X3626500Y981000D01*
X3617500Y975000D01*
X3611500Y968000D01*
X3610000Y960000D01*
X3611500Y952000D01*
X3617500Y945000D01*
X3626500Y939000D01*
X3637000Y935000D01*
X3649000Y933000D01*
X3661000D01*
X3673000Y935000D01*
X3683500Y939000D01*
X3692500Y945000D01*
X3698500Y952000D01*
X3700000Y960000D01*
G01X3730000Y920000D02*
Y860000D01*
G01X3610000Y820000D02*
X3700000D01*
G01X3610000Y843000D02*
Y797000D01*
G01X3700000Y730000D02*
Y770000D01*
X3610000D01*
Y730000D01*
G01X3653500Y746000D02*
Y770000D01*
G01X3688000Y701000D02*
X3695500Y693000D01*
X3700000Y684000D01*
Y676000D01*
X3695500Y668000D01*
X3688000Y662000D01*
X3677500Y659000D01*
X3667000Y661000D01*
X3658000Y666000D01*
X3652000Y675000D01*
X3649000Y687000D01*
X3643000Y694000D01*
X3632500Y697000D01*
X3622000Y695000D01*
X3614500Y690000D01*
X3610000Y683000D01*
Y676000D01*
X3613000Y669000D01*
X3620500Y663000D01*
G01X3610000Y610000D02*
X3700000D01*
G01X3610000Y633000D02*
Y587000D01*
G01X3730000Y570000D02*
Y510000D01*
G01X3610000Y495000D02*
X3700000Y470000D01*
X3610000Y445000D01*
G01X3700000Y400000D02*
X3610000D01*
X3628000Y412000D01*
G01X3700000D02*
Y388000D01*
G01X3610000Y330000D02*
X3613000Y338000D01*
X3620500Y344000D01*
X3629500Y348000D01*
X3641500Y351000D01*
X3655000Y352000D01*
X3668500Y351000D01*
X3680500Y348000D01*
X3689500Y344000D01*
X3697000Y338000D01*
X3700000Y330000D01*
X3697000Y322000D01*
X3689500Y316000D01*
X3680500Y312000D01*
X3668500Y309000D01*
X3655000Y308000D01*
X3641500Y309000D01*
X3629500Y312000D01*
X3620500Y316000D01*
X3613000Y322000D01*
X3610000Y330000D01*
G01X3700000Y285000D02*
X3610000Y260000D01*
X3700000Y235000D01*
G01X3668500Y244000D02*
Y276000D01*
G01X3775000Y1199000D02*
X3766000Y1193000D01*
X3761500Y1186000D01*
X3760000Y1178000D01*
X3763000Y1168000D01*
X3770500Y1161000D01*
X3779500Y1159000D01*
X3788500Y1160000D01*
X3796000Y1164000D01*
X3811000Y1184000D01*
X3821500Y1193000D01*
X3836500Y1199000D01*
X3850000Y1201000D01*
Y1159000D01*
G01X3760000Y1110000D02*
X3763000Y1118000D01*
X3770500Y1124000D01*
X3779500Y1128000D01*
X3791500Y1131000D01*
X3805000Y1132000D01*
X3818500Y1131000D01*
X3830500Y1128000D01*
X3839500Y1124000D01*
X3847000Y1118000D01*
X3850000Y1110000D01*
X3847000Y1102000D01*
X3839500Y1096000D01*
X3830500Y1092000D01*
X3818500Y1089000D01*
X3805000Y1088000D01*
X3791500Y1089000D01*
X3779500Y1092000D01*
X3770500Y1096000D01*
X3763000Y1102000D01*
X3760000Y1110000D01*
G01X3850000Y1040000D02*
X3760000D01*
X3778000Y1052000D01*
G01X3850000D02*
Y1028000D01*
G01Y972000D02*
X3830500Y970000D01*
X3814000Y967000D01*
X3799000Y963000D01*
X3782500Y958000D01*
X3760000Y950000D01*
Y990000D01*
G01X3880000Y930000D02*
Y870000D01*
G01X3760000Y830000D02*
X3763000Y838000D01*
X3770500Y844000D01*
X3779500Y848000D01*
X3791500Y851000D01*
X3805000Y852000D01*
X3818500Y851000D01*
X3830500Y848000D01*
X3839500Y844000D01*
X3847000Y838000D01*
X3850000Y830000D01*
X3847000Y822000D01*
X3839500Y816000D01*
X3830500Y812000D01*
X3818500Y809000D01*
X3805000Y808000D01*
X3791500Y809000D01*
X3779500Y812000D01*
X3770500Y816000D01*
X3763000Y822000D01*
X3760000Y830000D01*
G01X3850000Y760000D02*
X3848500Y753000D01*
X3844000Y745000D01*
X3836500Y740000D01*
X3826000Y738000D01*
X3815500Y740000D01*
X3806500Y746000D01*
X3802000Y755000D01*
Y765000D01*
X3799000Y771000D01*
X3791500Y776000D01*
X3781000Y778000D01*
X3770500Y775000D01*
X3763000Y768000D01*
X3760000Y760000D01*
X3763000Y752000D01*
X3770500Y745000D01*
X3781000Y742000D01*
X3791500Y744000D01*
X3799000Y749000D01*
X3802000Y755000D01*
Y765000D01*
X3806500Y774000D01*
X3815500Y780000D01*
X3826000Y782000D01*
X3836500Y780000D01*
X3844000Y775000D01*
X3848500Y767000D01*
X3850000Y760000D01*
G01X3880000Y720000D02*
Y660000D01*
G01X3832000Y642000D02*
X3842500Y636000D01*
X3848500Y628000D01*
X3850000Y619000D01*
X3848500Y611000D01*
X3841000Y603000D01*
X3832000Y598000D01*
X3823000Y597000D01*
X3812500Y599000D01*
X3805000Y606000D01*
X3802000Y613000D01*
Y622000D01*
G01Y613000D02*
X3797500Y607000D01*
X3790000Y602000D01*
X3781000Y600000D01*
X3772000Y602000D01*
X3764500Y607000D01*
X3760000Y616000D01*
X3761500Y625000D01*
X3767500Y634000D01*
G01X3850000Y550000D02*
X3760000D01*
X3778000Y562000D01*
G01X3850000D02*
Y538000D01*
G01X340000Y635000D02*
G03I-80000J0D01*
G01Y1085000D02*
G03I-80000J0D01*
M02*
