G04 ================== begin FILE IDENTIFICATION RECORD ==================*
G04 Layout Name:  USBAUDIO_TEST_V10A.brd*
G04 Film Name:    SolderMask_Top*
G04 File Format:  Gerber RS274X*
G04 File Origin:  Cadence Allegro 16.6-2015-S088*
G04 Origin Date:  Thu Aug 31 10:09:24 2017*
G04 *
G04 Layer:  BOARD GEOMETRY/OUTLINE*
G04 Layer:  PIN/SOLDERMASK_TOP*
G04 Layer:  PACKAGE GEOMETRY/SOLDERMASK_TOP*
G04 Layer:  BOARD GEOMETRY/SOLDERMASK_TOP*
G04 *
G04 Offset:    (0.0000 0.0000)*
G04 Mirror:    No*
G04 Mode:      Positive*
G04 Rotation:  0*
G04 FullContactRelief:  No*
G04 UndefLineWidth:     0.1524*
G04 ================== end FILE IDENTIFICATION RECORD ====================*
%FSLAX55Y55*MOMM*%
%IR0*IPPOS*OFA0.00000B0.00000*MIA0B0*SFA1.00000B1.00000*%
%ADD16R,.5X1.7*%
%ADD15R,.75X1.16*%
%ADD13R,.9144X.9144*%
%ADD14R,1.5X1.25*%
%ADD18R,1.6X3.6*%
%ADD11C,1.7*%
%ADD10C,3.5*%
%ADD17R,1.4224X1.2192*%
%ADD12R,1.7X1.7*%
%ADD19C,.2032*%
%ADD20C,.1524*%
G75*
%LPD*%
G75*
G54D10*
X260000Y260000D03*
Y1460000D03*
G54D20*
G01X250000Y0D02*
X3600000D01*
G03X3900000Y300000I0J300000D01*
G01Y1420000D01*
G03X3600000Y1720000I-300000J0D01*
G01X250000D01*
G03X0Y1470000I0J-250000D01*
G01Y250000D01*
G03X250000Y0I250000J0D01*
G01X335000Y635000D02*
G03I-75000J0D01*
G01Y1085000D02*
G03I-75000J0D01*
G01X340000Y635000D02*
G03I-80000J0D01*
G01Y1085000D02*
G03I-80000J0D01*
G54D11*
X530000Y760000D03*
Y1210000D03*
Y960000D03*
G54D12*
Y510000D03*
G54D13*
X783800Y230000D03*
X936200D03*
X783800Y630000D03*
X936200D03*
X783800Y480000D03*
X936200D03*
X1103800Y1270000D03*
X783800Y1050000D03*
X936200D03*
X783800Y1270000D03*
X936200D03*
X1103800Y1470000D03*
X783800D03*
X936200D03*
X1490000Y253800D03*
X1640000Y766200D03*
Y613800D03*
X1490000Y766200D03*
Y613800D03*
Y406200D03*
X1403800Y1270000D03*
X1556200D03*
X1256200D03*
X1403800Y970000D03*
X1556200D03*
X1403800Y1120000D03*
X1556200D03*
X1403800Y1470000D03*
X1556200D03*
X1256200D03*
X2100000Y263800D03*
X1890000Y756200D03*
Y603800D03*
X2100000Y416200D03*
X2260000Y263800D03*
X2410000D03*
X2710000D03*
X2560000D03*
X2260000Y416200D03*
X2410000D03*
X2710000D03*
X2560000D03*
X2410000Y1046200D03*
Y893800D03*
X3010000Y1303800D03*
Y1456200D03*
G54D14*
X1680000Y250000D03*
Y410000D03*
X1900000Y250000D03*
Y410000D03*
G54D15*
X1325000Y214600D03*
X1230000D03*
X1135000D03*
Y485400D03*
X1325000D03*
G54D16*
X2135000Y930000D03*
X2070000D03*
X2005000D03*
X1940000D03*
X1875000D03*
X1810000D03*
X1745000D03*
Y1490000D03*
X1810000D03*
X1875000D03*
X1940000D03*
X2005000D03*
X2070000D03*
X2135000D03*
G54D17*
X2890000Y238400D03*
Y441600D03*
X3190000Y1288400D03*
Y1491600D03*
G54D18*
X3270000Y470000D03*
X2770000Y1230000D03*
X3470000D03*
G54D19*
G01X2940000Y850000D02*
G03I-70000J0D01*
G01X3540000D02*
G03I-70000J0D01*
M02*
