G04 ================== begin FILE IDENTIFICATION RECORD ==================*
G04 Layout Name:  USBAUDIO_TEST_V10A.brd*
G04 Film Name:    SolderMask_Bottom*
G04 File Format:  Gerber RS274X*
G04 File Origin:  Cadence Allegro 16.6-2015-S088*
G04 Origin Date:  Thu Aug 31 10:09:24 2017*
G04 *
G04 Layer:  BOARD GEOMETRY/OUTLINE*
G04 Layer:  PIN/SOLDERMASK_BOTTOM*
G04 Layer:  PACKAGE GEOMETRY/SOLDERMASK_BOTTOM*
G04 Layer:  BOARD GEOMETRY/SOLDERMASK_BOTTOM*
G04 *
G04 Offset:    (0.0000 0.0000)*
G04 Mirror:    No*
G04 Mode:      Positive*
G04 Rotation:  0*
G04 FullContactRelief:  No*
G04 UndefLineWidth:     0.1524*
G04 ================== end FILE IDENTIFICATION RECORD ====================*
%FSLAX55Y55*MOMM*%
%IR0*IPPOS*OFA0.00000B0.00000*MIA0B0*SFA1.00000B1.00000*%
%ADD16R,1.6X.6*%
%ADD15R,.6X1.6*%
%ADD11R,.9144X.9144*%
%ADD12C,1.7*%
%ADD10C,3.5*%
%ADD17R,2.54X3.048*%
%ADD13R,1.7X1.7*%
%ADD14R,1.2954X1.2954*%
%ADD18C,.2032*%
%ADD19C,.1524*%
G75*
%LPD*%
G75*
G54D10*
X260000Y260000D03*
Y1460000D03*
G54D11*
X276200Y785000D03*
X123800D03*
Y935000D03*
X276200D03*
X783800Y780000D03*
X936200D03*
X783800Y530000D03*
X936200D03*
X783800Y1080000D03*
X936200D03*
X783800Y930000D03*
X936200D03*
X783800Y1230000D03*
X936200D03*
X2110000Y1343800D03*
X1960000D03*
X1790000D03*
X2110000Y1496200D03*
X1960000D03*
X1790000D03*
X2410000Y283800D03*
Y436200D03*
Y603800D03*
Y756200D03*
Y1263800D03*
Y1416200D03*
X2260000Y1343800D03*
X2410000Y1096200D03*
Y943800D03*
X2260000Y1496200D03*
X2713800Y1520000D03*
X2723800Y190000D03*
X2876200D03*
X2866200Y1520000D03*
X3243800D03*
X3416200Y190000D03*
X3263800D03*
X3396200Y1520000D03*
G54D12*
X530000Y760000D03*
Y1210000D03*
Y960000D03*
G54D13*
Y510000D03*
G54D14*
X964140Y360000D03*
X755860D03*
G54D15*
X1390000Y240000D03*
X1470000D03*
X1550000D03*
X1630000D03*
Y1140000D03*
X1550000D03*
X1470000D03*
X1390000D03*
X1710000Y240000D03*
X1790000D03*
X1870000D03*
X1950000D03*
Y1140000D03*
X1870000D03*
X1790000D03*
X1710000D03*
G54D16*
X1220000Y810000D03*
Y730000D03*
Y650000D03*
Y570000D03*
Y490000D03*
Y410000D03*
Y970000D03*
Y890000D03*
X2120000Y410000D03*
Y490000D03*
Y570000D03*
Y650000D03*
Y730000D03*
Y810000D03*
Y890000D03*
Y970000D03*
G54D17*
X2727100Y500000D03*
Y1210000D03*
X3412900Y500000D03*
Y1210000D03*
G54D18*
G01X2940000Y850000D02*
G03I-70000J0D01*
G01X3540000D02*
G03I-70000J0D01*
G54D19*
G01X250000Y0D02*
X3600000D01*
G03X3900000Y300000I0J300000D01*
G01Y1420000D01*
G03X3600000Y1720000I-300000J0D01*
G01X250000D01*
G03X0Y1470000I0J-250000D01*
G01Y250000D01*
G03X250000Y0I250000J0D01*
G01X335000Y635000D02*
G03I-75000J0D01*
G01Y1085000D02*
G03I-75000J0D01*
G01X340000Y635000D02*
G03I-80000J0D01*
G01Y1085000D02*
G03I-80000J0D01*
M02*
