G04 ================== begin FILE IDENTIFICATION RECORD ==================*
G04 Layout Name:  USBAUDIO_TEST_V10A.brd*
G04 Film Name:    TOP*
G04 File Format:  Gerber RS274X*
G04 File Origin:  Cadence Allegro 16.6-2015-S088*
G04 Origin Date:  Thu Aug 31 10:09:24 2017*
G04 *
G04 Layer:  BOARD GEOMETRY/OUTLINE*
G04 Layer:  VIA CLASS/TOP*
G04 Layer:  PIN/TOP*
G04 Layer:  ETCH/TOP*
G04 *
G04 Offset:    (0.0000 0.0000)*
G04 Mirror:    No*
G04 Mode:      Positive*
G04 Rotation:  0*
G04 FullContactRelief:  No*
G04 UndefLineWidth:     0.1524*
G04 ================== end FILE IDENTIFICATION RECORD ====================*
%FSLAX55Y55*MOMM*%
%IR0*IPPOS*OFA0.00000B0.00000*MIA0B0*SFA1.00000B1.00000*%
%ADD18R,.4X1.6*%
%ADD17R,.65X1.06*%
%ADD11C,.6096*%
%ADD16R,1.4X1.15*%
%ADD20R,1.5X3.5*%
%ADD10C,3.3*%
%ADD12C,1.6*%
%ADD19R,1.2192X1.016*%
%ADD13R,1.6X1.6*%
%ADD15R,.9144X.9144*%
%ADD14R,.9144X.9144*%
%ADD21C,.2032*%
%ADD22C,.7112*%
%ADD23C,.254*%
%ADD24C,.1524*%
%ADD25C,.508*%
%ADD26C,1.4146*%
G75*
%LPD*%
G75*
G36*
G01X3890000Y300000D02*
G02X3600000Y10000I-288333J-1667D01*
G01X360000D01*
Y68750D01*
G03X456000Y350350I-99999J191254D01*
G02X474450Y379180I18451J8511D01*
G01X603940D01*
Y372640D01*
X702640Y273940D01*
X844260D01*
Y161050D01*
X849820Y155490D01*
Y143620D01*
X861690D01*
X901050Y104260D01*
X1205740D01*
Y120940D01*
X1208160D01*
Y256640D01*
X1251840D01*
Y120940D01*
X1398160D01*
Y302400D01*
G02X1399020Y308260I20321J11D01*
G01X1373360D01*
X1370380Y313070D01*
G03X1362730Y322730I-45376J-28075D01*
G01X1322100Y363360D01*
X1202900D01*
G03X1199760Y368220I-57004J-33385D01*
G02X1208050Y384260I8286J5880D01*
G01X1215740D01*
Y632320D01*
X1297360Y713940D01*
X1388680D01*
X1415110Y691870D01*
X1405010Y679760D01*
X1399450Y680510D01*
G03X1319340Y601740I-9451J-70510D01*
G02X1299160Y579060I-20182J-2361D01*
G01X1251840D01*
Y391740D01*
X1403620D01*
Y316260D01*
G02X1421170Y322540I14858J-13860D01*
G01X1514430Y310110D01*
X1544720Y279820D01*
X1578740Y151840D01*
X1781260D01*
X1815280Y279820D01*
X1847300Y311840D01*
X1985690D01*
X2020730Y343610D01*
X2042480Y329820D01*
X2173620D01*
Y202680D01*
X2192080Y181810D01*
X2190840Y176660D01*
G03X2318340Y119290I69161J-16659D01*
G02X2351660I16660J-11634D01*
G03X2460560Y109950I58342J40709D01*
G02X2489440I14440J-14292D01*
G03X2587050Y106640I50558J50049D01*
G01X2628300D01*
X2699080Y177420D01*
X2796380D01*
Y342740D01*
G02X2813320Y350310I10161J0D01*
G01X2813500Y350140D01*
X2991620D01*
Y533060D01*
X2813500D01*
X2776720Y500140D01*
X2758410Y502580D01*
X2623620D01*
Y350180D01*
X2496380D01*
Y476370D01*
X2476060Y501350D01*
Y808650D01*
X2489390Y825040D01*
X2530210Y896790D01*
X2586060Y952640D01*
Y1137360D01*
X2506060Y1217360D01*
Y1463940D01*
X2654340D01*
Y1014340D01*
X2885660D01*
Y1043940D01*
X3023540D01*
X3025250Y1043310D01*
G03Y1176690I24750J66690D01*
G01X3023540Y1176060D01*
X2885660D01*
Y1463940D01*
X2907940D01*
X2926580Y1394040D01*
X2923620Y1390180D01*
Y1217420D01*
X3071120D01*
X3081200Y1226340D01*
X3113200Y1196940D01*
X3291620D01*
Y1379860D01*
X3121030D01*
X3110390Y1375500D01*
G02X3096380Y1384900I-3851J9401D01*
G01Y1531520D01*
X3001170Y1562260D01*
X2967360Y1596060D01*
X2466460D01*
X2464750Y1596690D01*
G03X2373310Y1505250I-24750J-66690D01*
G01X2373940Y1503540D01*
Y1162640D01*
X2453940Y1082640D01*
Y1007360D01*
X2445670Y999100D01*
X2370750Y982580D01*
G02X2346060Y1002430I-4370J19845D01*
G01Y1277360D01*
X2217360Y1406060D01*
X2130660D01*
Y1584460D01*
X2123360Y1593430D01*
Y1617500D01*
X2065550Y1675310D01*
G02X2079920Y1710000I14367J14370D01*
G01X3600000D01*
G02X3890000Y1420000I0J-290000D01*
G01Y300000D01*
G37*
G36*
G01X757360Y406060D02*
X736060Y427360D01*
Y742640D01*
X930290Y936870D01*
X1003380Y969320D01*
X1021350Y983940D01*
X1033540D01*
X1035250Y983310D01*
G03Y1116690I24750J66690D01*
G01X1033540Y1116060D01*
X1021350D01*
X996370Y1136380D01*
X858470D01*
X831590Y1025010D01*
X655090Y848510D01*
G02X625830Y849050I-14370J14369D01*
G03X622210Y852790I-95789J-89094D01*
G02Y867210I7165J7210D01*
G03X599540Y1070810I-92211J92795D01*
G02X599160Y1104990I10799J17212D01*
G03X460840I-69160J105010D01*
G02X460460Y1070810I-11179J-16968D01*
G03X437790Y867210I69541J-110805D01*
G02Y852790I-7165J-7210D01*
G03X431050Y674430I92211J-92792D01*
G02X415680Y640820I-15372J-13290D01*
G01X399180D01*
Y464040D01*
G02X368630Y446490I-20319J6D01*
G03X360000Y451250I-108522J-186550D01*
G01Y1268750D01*
G03Y1651250I-100000J191250D01*
G01Y1710000D01*
X1385480D01*
G02X1399850Y1675310I3J-20320D01*
G01X1350440Y1625900D01*
Y1568470D01*
X1329910Y1545250D01*
X1317320Y1556380D01*
X1042680D01*
X1020000Y1536330D01*
X997320Y1556380D01*
X722680D01*
X691140Y1528490D01*
X684840Y1532020D01*
G03X589140Y1433170I-34837J-62024D01*
G03X649060Y1325210I60862J-36829D01*
G01X653190Y1325150D01*
X697420Y1280920D01*
Y1183620D01*
X997320D01*
X1020000Y1203670D01*
X1042680Y1183620D01*
X1317320D01*
X1330000Y1194830D01*
X1342680Y1183620D01*
X1469820D01*
Y914120D01*
X1480270Y894510D01*
X1479740Y891150D01*
G03X1479070Y874480I70258J-11172D01*
G02X1458820Y852580I-20257J-1582D01*
G01X1439090D01*
X1413990Y846060D01*
X1242640D01*
X1122320Y725740D01*
X1087250D01*
X1085490Y726410D01*
G03X1034510I-25490J-66410D01*
G01X1032750Y725740D01*
X844260D01*
Y406060D01*
X757360D01*
G37*
G36*
G01X1160000Y320000D02*
Y150000D01*
X920000D01*
X890000Y180000D01*
Y320000D01*
X940000Y370000D01*
X1110000D01*
X1160000Y320000D01*
G37*
G36*
G01X890000Y680000D02*
X1110000D01*
X1170000Y620000D01*
Y430000D01*
X890000D01*
Y680000D01*
G37*
G36*
G01X894270Y965360D02*
X981920Y1004280D01*
X940070Y1055040D01*
X890480Y1095720D01*
X865080Y990480D01*
G03X894270Y965360I25404J0D01*
G37*
G36*
G01X1025440Y1060310D02*
X981920Y1095720D01*
X929850Y1050000D01*
X981920Y1004280D01*
X1025440Y1039690D01*
G03Y1060310I-23210J10310D01*
G37*
G36*
G01X1014770Y1262570D02*
X1058080Y1224280D01*
X1106980Y1270000D01*
X1058080Y1315720D01*
X1014770Y1277430D01*
G03Y1262570I10300J-7430D01*
G37*
G36*
G01X1025230Y1277430D02*
X981920Y1315720D01*
X933020Y1270000D01*
X981920Y1224280D01*
X1025230Y1262570D01*
G03Y1277430I-10300J7430D01*
G37*
G36*
G01X686950Y1383470D02*
X679480Y1401250D01*
X647400Y1398170D01*
X650000Y1365860D01*
X675240D01*
G03X686950Y1383470I0J12698D01*
G37*
G36*
G01X1014770Y1462570D02*
X1058080Y1424280D01*
X1106980Y1470000D01*
X1058080Y1515720D01*
X1014770Y1477430D01*
G03Y1462570I10300J-7430D01*
G37*
G36*
G01X1025230Y1477430D02*
X981920Y1515720D01*
X933020Y1470000D01*
X981920Y1424280D01*
X1025230Y1462570D01*
G03Y1477430I-10300J7430D01*
G37*
G36*
G01X684120Y1478980D02*
X671540Y1491540D01*
X646820Y1470000D01*
X671540Y1448460D01*
X684120Y1461020D01*
G03Y1478980I-8980J8980D01*
G37*
G36*
G01X694770Y1462570D02*
X738080Y1424280D01*
X786980Y1470000D01*
X738080Y1515720D01*
X694770Y1477430D01*
G03Y1462570I10300J-7430D01*
G37*
G36*
G01X1767500Y320200D02*
X1610000Y307500D01*
X1677350Y248260D01*
X1750000Y192500D01*
X1780060Y305590D01*
G03X1767500Y320200I-12560J1906D01*
G37*
G36*
G01X1579940Y305590D02*
X1610000Y192500D01*
X1682650Y248260D01*
X1750000Y307500D01*
X1592500Y320200D01*
G03X1579940Y305590I0J-12704D01*
G37*
G36*
G01X1680000Y353940D02*
X1616400Y359070D01*
X1588900Y386560D01*
X1579030Y440960D01*
X1586690Y444060D01*
G03X1631140Y510000I-26685J65940D01*
G01Y527420D01*
X1736640D01*
Y358500D01*
X1680000Y353940D01*
G37*
G36*
G01X1388130Y767370D02*
X1444280Y720480D01*
X1496260Y765120D01*
X1444280Y811920D01*
X1392810Y798550D01*
G03X1388130Y767370I17359J-18547D01*
G37*
G36*
G01X1424120Y618980D02*
X1411540Y631540D01*
X1386820Y610000D01*
X1411540Y588460D01*
X1424120Y601020D01*
G03Y618980I-8980J8980D01*
G37*
G36*
G01X1397930Y601620D02*
X1444280Y568080D01*
X1493170Y613950D01*
X1444280Y659520D01*
X1397280Y617580D01*
G03X1397930Y601620I10190J-7578D01*
G37*
G36*
G01X1577780Y551580D02*
X1560000Y533800D01*
X1558750Y507080D01*
X1590480Y510000D01*
Y551580D01*
X1577780D01*
G37*
G36*
G01X1552210Y361010D02*
X1535720Y451920D01*
X1487670Y408350D01*
X1444280Y360480D01*
X1539520Y347780D01*
G03X1552210Y361010I0J12701D01*
G37*
G36*
G01X1561550Y875150D02*
X1601920Y924280D01*
X1556740Y976330D01*
X1510480Y924280D01*
X1535850Y876680D01*
G03X1561550Y875150I14151J21091D01*
G37*
G36*
G01X1645230Y1277430D02*
X1601920Y1315720D01*
X1553020Y1270000D01*
X1601920Y1224280D01*
X1645230Y1262570D01*
G03Y1277430I-10300J7430D01*
G37*
G36*
G01X1448990Y1332210D02*
X1358080Y1315720D01*
X1401650Y1267670D01*
X1449520Y1224280D01*
X1462220Y1319520D01*
G03X1448990Y1332210I-12701J0D01*
G37*
G36*
G01X1314770Y1262570D02*
X1358080Y1224280D01*
X1406980Y1270000D01*
X1358080Y1315720D01*
X1314770Y1277430D01*
G03Y1262570I10300J-7430D01*
G37*
G36*
G01X1345230Y1277430D02*
X1301920Y1315720D01*
X1253020Y1270000D01*
X1301920Y1224280D01*
X1345230Y1262570D01*
G03Y1277430I-10300J7430D01*
G37*
G36*
G01X1640820Y1126650D02*
X1601920Y1165720D01*
X1553020Y1120000D01*
X1601920Y1074280D01*
X1640820Y1113350D01*
G03Y1126650I-10820J6650D01*
G37*
G36*
G01X1396370Y1559030D02*
X1358080Y1515720D01*
X1403800Y1466820D01*
X1449520Y1515720D01*
X1411230Y1559030D01*
G03X1396370I-7430J-10300D01*
G37*
G36*
G01X1314770Y1462570D02*
X1358080Y1424280D01*
X1406980Y1470000D01*
X1358080Y1515720D01*
X1314770Y1477430D01*
G03Y1462570I10300J-7430D01*
G37*
G36*
G01X1345230Y1477430D02*
X1301920Y1515720D01*
X1253020Y1470000D01*
X1301920Y1424280D01*
X1345230Y1462570D01*
G03Y1477430I-10300J7430D01*
G37*
G36*
G01X1548770Y1559030D02*
X1510480Y1515720D01*
X1556200Y1466820D01*
X1601920Y1515720D01*
X1563630Y1559030D01*
G03X1548770I-7430J-10300D01*
G37*
G36*
G01X2213940Y1043800D02*
G03X2229290Y941660I56059J-43799D01*
G02Y908340I-11634J-16660D01*
G03X2199650Y839410I40708J-58342D01*
G02X2179560Y816060I-20091J-3031D01*
G01X2130660D01*
Y1024460D01*
X2123360Y1033430D01*
Y1059720D01*
X2130580Y1061900D01*
G03X2178260Y1150030I-20581J68098D01*
G03X2195810Y1165880I-38243J59986D01*
G01X2213940Y1159580D01*
Y1043800D01*
G37*
G36*
G01X2015150Y481440D02*
X1998190Y496830D01*
X1994180Y500910D01*
G02X2003690Y534840I14500J14234D01*
G03X2040010Y650330I-17491J68957D01*
G02X2055380Y683940I15372J13290D01*
G01X2243540D01*
X2245250Y683310D01*
G03X2311710Y692370I24756J66692D01*
G02X2343940Y675910I11910J-16463D01*
G01Y501350D01*
X2335080Y490450D01*
X2320170Y502580D01*
X2038710D01*
X2015150Y481440D01*
G37*
G36*
G01X1814350Y830780D02*
X1830000Y850000D01*
X1810000Y933180D01*
X1790000Y850000D01*
X1805650Y830780D01*
G03X1814350I4350J11930D01*
G37*
G36*
G01X1729030Y773630D02*
X1685720Y811920D01*
X1636820Y766200D01*
X1685720Y720480D01*
X1729030Y758770D01*
G03Y773630I-10300J7430D01*
G37*
G36*
G01X1781020Y635720D02*
X1766860Y621540D01*
X1788210Y596830D01*
X1811000Y620340D01*
X1800040Y634510D01*
G03X1781020Y635720I-10043J-7771D01*
G37*
G36*
G01X1800040Y565490D02*
X1811000Y579660D01*
X1788210Y603170D01*
X1766860Y578460D01*
X1781020Y564280D01*
G03X1800040Y565490I8977J8981D01*
G37*
G36*
G01X1840480Y697780D02*
X1935720Y710480D01*
X1892330Y758350D01*
X1844280Y801920D01*
X1827790Y711010D01*
G03X1840480Y697780I12690J-529D01*
G37*
G36*
G01X2006050Y401060D02*
X2054280Y370480D01*
X2103170Y416430D01*
X2054280Y461920D01*
X2004940Y417650D01*
G03X2006050Y401060I10132J-7654D01*
G37*
G36*
G01X1880770Y539720D02*
X1830000Y467500D01*
X1900260Y406840D01*
X1970000Y467500D01*
X1897900Y540950D01*
G03X1880770Y539720I-7895J-9949D01*
G37*
G36*
G01X2024810Y417800D02*
X1970000Y467500D01*
X1896820Y410000D01*
X1970000Y352500D01*
X2024810Y402200D01*
G03Y417800I-10020J7800D01*
G37*
G36*
G01X1979030Y611230D02*
X1935720Y649520D01*
X1886820Y603800D01*
X1935720Y558080D01*
X1979030Y596370D01*
G03Y611230I-10300J7430D01*
G37*
G36*
G01X1897430Y514770D02*
X1935720Y558080D01*
X1890000Y606980D01*
X1844280Y558080D01*
X1882570Y514770D01*
G03X1897430I7430J10300D01*
G37*
G36*
G01X1952080Y594820D02*
X1964660Y582260D01*
X1989380Y603800D01*
X1964660Y625340D01*
X1952080Y612780D01*
G03Y594820I8980J-8980D01*
G37*
G36*
G01X1654670Y1216640D02*
X1687900D01*
X1819190Y1085350D01*
G02X1804820Y1050660I-14367J-14370D01*
G01X1722480D01*
Y1102980D01*
X1652100Y1173360D01*
X1651690D01*
X1645380Y1179700D01*
G02X1646320Y1209260I14398J14337D01*
G01X1654670Y1216640D01*
G37*
G36*
G01X1704120Y878980D02*
X1691540Y891540D01*
X1666820Y870000D01*
X1691540Y848460D01*
X1704120Y861020D01*
G03Y878980I-8980J8980D01*
G37*
G36*
G01X2079520Y1147780D02*
Y1130000D01*
X2112250Y1127750D01*
X2110000Y1160480D01*
X2092220D01*
G03X2079520Y1147780I0J-12700D01*
G37*
G36*
G01X2105880Y1201020D02*
X2118460Y1188460D01*
X2143180Y1210000D01*
X2118460Y1231540D01*
X2105880Y1218980D01*
G03Y1201020I8980J-8980D01*
G37*
G36*
G01X2000650Y1029220D02*
X1985000Y1010000D01*
X2005000Y926820D01*
X2025000Y1010000D01*
X2009350Y1029220D01*
G03X2000650I-4350J-11930D01*
G37*
G36*
G01X2065650D02*
X2050000Y1010000D01*
X2070000Y926820D01*
X2090000Y1010000D01*
X2074350Y1029220D01*
G03X2065650I-4350J-11930D01*
G37*
G36*
G01X1660140Y984120D02*
X1647580Y971540D01*
X1669120Y946820D01*
X1690660Y971540D01*
X1678100Y984120D01*
G03X1660140I-8980J-8980D01*
G37*
G36*
G01X1944350Y1390780D02*
X1960000Y1410000D01*
X1940000Y1493180D01*
X1920000Y1410000D01*
X1935650Y1390780D01*
G03X1944350I4350J11930D01*
G37*
G36*
G01X1706940Y1539050D02*
X1725550Y1460920D01*
X1746440Y1487170D01*
X1759450Y1552690D01*
X1715750Y1552100D01*
G03X1706940Y1539050I3852J-12099D01*
G37*
G36*
G01X1704120Y1548980D02*
X1691540Y1561540D01*
X1666820Y1540000D01*
X1691540Y1518460D01*
X1704120Y1531020D01*
G03Y1548980I-8980J8980D01*
G37*
G36*
G01X2065650Y1589220D02*
X2050000Y1570000D01*
X2070000Y1486820D01*
X2090000Y1570000D01*
X2074350Y1589220D01*
G03X2065650I-4350J-11930D01*
G37*
G36*
G01X1814350Y1390780D02*
X1830000Y1410000D01*
X1810000Y1493180D01*
X1790000Y1410000D01*
X1805650Y1390780D01*
G03X1814350I4350J11930D01*
G37*
G36*
G01X1879350D02*
X1895000Y1410000D01*
X1875000Y1493180D01*
X1855000Y1410000D01*
X1870650Y1390780D01*
G03X1879350I4350J11930D01*
G37*
G36*
G01X2000650Y1589220D02*
X1985000Y1570000D01*
X2005000Y1486820D01*
X2025000Y1570000D01*
X2009350Y1589220D01*
G03X2000650I-4350J-11930D01*
G37*
G36*
G01X2401020Y194120D02*
X2388460Y181540D01*
X2410000Y156820D01*
X2431540Y181540D01*
X2418980Y194120D01*
G03X2401020I-8980J-8980D01*
G37*
G36*
G01X2470970Y256370D02*
X2514280Y218080D01*
X2563180Y263800D01*
X2514280Y309520D01*
X2470970Y271230D01*
G03Y256370I10300J-7430D01*
G37*
G36*
G01X2417430Y174770D02*
X2455720Y218080D01*
X2410000Y266980D01*
X2364280Y218080D01*
X2402570Y174770D01*
G03X2417430I7430J10300D01*
G37*
G36*
G01X2499030Y271230D02*
X2455720Y309520D01*
X2406820Y263800D01*
X2455720Y218080D01*
X2499030Y256370D01*
G03Y271230I-10300J7430D01*
G37*
G36*
G01X2251020Y194120D02*
X2238460Y181540D01*
X2260000Y156820D01*
X2281540Y181540D01*
X2268980Y194120D01*
G03X2251020I-8980J-8980D01*
G37*
G36*
G01X2267430Y174770D02*
X2305720Y218080D01*
X2260000Y266980D01*
X2214280Y218080D01*
X2252570Y174770D01*
G03X2267430I7430J10300D01*
G37*
G36*
G01X2574120Y168980D02*
X2561540Y181540D01*
X2536820Y160000D01*
X2561540Y138460D01*
X2574120Y151020D01*
G03Y168980I-8980J8980D01*
G37*
G36*
G01X2300470Y824600D02*
X2455720Y848080D01*
X2415890Y896160D01*
X2364280Y939520D01*
X2280060Y864700D01*
G03X2300470Y824600I20717J-14700D01*
G37*
G36*
G01X2420310Y804560D02*
X2455720Y848080D01*
X2410000Y900150D01*
X2364280Y848080D01*
X2399690Y804560D01*
G03X2420310I10310J23210D01*
G37*
G36*
G01X2399690Y505440D02*
X2364280Y461920D01*
X2410000Y409850D01*
X2455720Y461920D01*
X2420310Y505440D01*
G03X2399690I-10310J-23210D01*
G37*
G36*
G01X2320760Y405890D02*
X2364280Y370480D01*
X2416350Y416200D01*
X2364280Y461920D01*
X2320760Y426510D01*
G03Y405890I23210J-10310D01*
G37*
G36*
G01X2349240Y426510D02*
X2305720Y461920D01*
X2253650Y416200D01*
X2305720Y370480D01*
X2349240Y405890D01*
G03Y426510I-23210J10310D01*
G37*
G36*
G01X2479520Y964920D02*
X2364280Y939520D01*
X2404690Y890310D01*
X2455720Y848080D01*
X2504100Y933120D01*
G03X2479520Y964920I-24580J6400D01*
G37*
G36*
G01X2262040Y1035140D02*
X2248460Y1021540D01*
X2266810Y994510D01*
X2280000Y1010000D01*
Y1017180D01*
X2262040Y1035140D01*
G37*
G36*
G01X2818300Y453590D02*
X2755720Y461920D01*
X2706920Y415450D01*
X2755720Y370480D01*
X2823940Y433540D01*
G03X2818300Y453590I-9812J8058D01*
G37*
G36*
G01X2780790Y433980D02*
X2829040Y390800D01*
X2893180Y441600D01*
X2829040Y492400D01*
X2780790Y449220D01*
G03Y433980I10160J-7620D01*
G37*
G36*
G01X3065670Y1295820D02*
X3129040Y1237600D01*
X3193150Y1287980D01*
X3129040Y1339200D01*
X3068540Y1314390D01*
G03X3065670Y1295820I7010J-10590D01*
G37*
G36*
G01X3099030Y1311230D02*
X3055720Y1349520D01*
X3006820Y1303800D01*
X3055720Y1258080D01*
X3099030Y1296370D01*
G03Y1311230I-10300J7430D01*
G37*
G36*
G01X2938880Y1505720D02*
X2964280Y1410480D01*
X3014310Y1451530D01*
X3055720Y1501920D01*
X2965330Y1531100D01*
G03X2938880Y1505720I-1048J-25380D01*
G37*
%LPC*%
G75*
G36*
G01X3385660Y685660D02*
Y254340D01*
X3154340D01*
Y685660D01*
X3203940D01*
Y833540D01*
X3203310Y835250D01*
G02X3336690I66690J24750D01*
G01X3336060Y833540D01*
Y685660D01*
X3385660D01*
G37*
G54D26*
X2870000Y850000D03*
X3470000D03*
%LPD*%
G75*
G36*
G01X1675180Y491750D02*
X1649540Y467490D01*
X1680000Y406820D01*
X1710460Y467490D01*
X1684820Y491750D01*
G03X1675180I-4820J-11750D01*
G37*
G36*
G01X1702220Y489520D02*
X1720000D01*
X1722250Y522250D01*
X1689520Y520000D01*
Y502220D01*
G03X1702220Y489520I12700J0D01*
G37*
G54D10*
X260000Y260000D03*
Y1460000D03*
G54D20*
X3270000Y470000D03*
X2770000Y1230000D03*
X3470000D03*
G54D11*
X430000Y50000D03*
X540000Y120000D03*
Y220000D03*
Y320000D03*
X530000Y1530000D03*
X450000Y1660000D03*
X1040000Y50000D03*
X840000D03*
X640000D03*
Y220000D03*
X1050000Y180000D03*
Y240000D03*
X1090000Y340000D03*
X1060000Y760000D03*
Y660000D03*
X1070000Y1150000D03*
X1060000Y1050000D03*
X650000Y1396340D03*
X890000Y1660000D03*
X680000D03*
X1090000D03*
X650000Y1470000D03*
X1650000Y50000D03*
X1440000D03*
X1240000D03*
X1390000Y690000D03*
X1550000Y880000D03*
X1390000Y610000D03*
X1560000Y510000D03*
X1260000Y1150000D03*
X1300000Y1660000D03*
X1720000Y520000D03*
X1670000Y870000D03*
X1788400Y600000D03*
X1986200Y603800D03*
X2170000Y1060000D03*
X2110000Y1130000D03*
X2140000Y1210000D03*
X1669120Y950000D03*
X1670000Y1540000D03*
X2620000Y50000D03*
X2410000Y160000D03*
X2260000D03*
X2540000D03*
X2270000Y540000D03*
Y640000D03*
X2580000Y850000D03*
X2270000D03*
Y750000D03*
X2530000Y1250000D03*
X2270000Y1000000D03*
X2530000Y1420000D03*
X2540000Y1660000D03*
X2310000D03*
X2440000Y1530000D03*
X3110000Y50000D03*
X2860000D03*
X3170000Y730000D03*
X2940000Y650000D03*
X2730000Y850000D03*
X3170000Y980000D03*
X2940000D03*
X3050000Y1110000D03*
X3040000Y1660000D03*
X2810000D03*
X3660000Y280000D03*
X3620000Y50000D03*
X3350000D03*
X3660000Y730000D03*
Y510000D03*
X3270000Y860000D03*
X3660000Y1410000D03*
Y1180000D03*
Y960000D03*
X3260000Y1660000D03*
X3490000D03*
X3690000Y1610000D03*
X3840000Y280000D03*
Y730000D03*
Y510000D03*
Y1410000D03*
Y1180000D03*
Y960000D03*
G54D21*
G01X1658880Y1191120D02*
X1474920D01*
X1403800Y1120000D01*
G01X1660000Y1190000D02*
X1658880Y1191120D01*
G01X2940000Y850000D02*
G03I-70000J0D01*
G01X3540000D02*
G03I-70000J0D01*
G54D12*
X530000Y760000D03*
Y1210000D03*
Y960000D03*
G54D22*
G01Y1210000D02*
Y1345900D01*
G01X394100Y1210000D02*
X530000D01*
G01D02*
X665900D01*
G54D13*
X530000Y510000D03*
G54D23*
G01X470000Y350000D02*
X380000Y440000D01*
Y460000D01*
G01X936200Y1270000D02*
X1103800D01*
G01X650000Y1396340D02*
X657460D01*
X783800Y1270000D01*
G01X936200Y1470000D02*
X1103800D01*
G01X650000D02*
X783800D01*
G01X1325000Y214600D02*
Y285000D01*
X1300000Y310000D01*
X1165880D01*
X1145880Y330000D01*
G01X1680000Y250000D02*
X1650000D01*
X1493800Y406200D01*
X1490000D01*
G01X1390000Y610000D02*
X1486200D01*
X1490000Y613800D01*
G01X1640000D02*
X1560000Y533800D01*
Y510000D01*
G01X1556200Y1270000D02*
X1710000D01*
X1920000Y1060000D01*
X1979600D01*
X2005000Y1034600D01*
Y930000D01*
G01X1256200Y1270000D02*
X1403800D01*
G01X2070000Y930000D02*
Y1050000D01*
X2010000Y1110000D01*
X1930000D01*
X1670000Y1370000D01*
X1500000D01*
X1403800Y1273800D01*
Y1270000D01*
G01X1669120Y950000D02*
Y1080880D01*
X1630000Y1120000D01*
X1556200D01*
G01X1390000Y1700000D02*
X2090000D01*
G01X2070000Y1490000D02*
Y1595400D01*
X2015400Y1650000D01*
X1450000D01*
X1403800Y1603800D01*
Y1470000D01*
G01X1256200D02*
X1403800D01*
G01X2005000Y1490000D02*
Y1590400D01*
X1986040Y1609360D01*
X1599360D01*
X1556200Y1566200D01*
Y1470000D01*
G01X1788400Y600000D02*
X1790000Y598400D01*
Y330000D01*
X1710000Y250000D01*
X1680000D01*
G01X1720000Y520000D02*
X1680000Y480000D01*
Y410000D01*
G01X1640000Y766200D02*
X1746200D01*
X1810000Y830000D01*
Y930000D01*
G01X1890000Y756200D02*
X1886200D01*
X1790000Y660000D01*
Y601600D01*
X1788400Y600000D01*
G01X1900000Y410000D02*
X2093800D01*
X2100000Y416200D01*
G01X1890000Y603800D02*
Y420000D01*
X1900000Y410000D01*
G01X1890000Y603800D02*
X1986200D01*
G01X1820000Y1080000D02*
X1875000Y1025000D01*
Y930000D01*
G01X2203500Y1153500D02*
Y1236310D01*
X2159810Y1280000D01*
X2000000D01*
X1940000Y1340000D01*
Y1490000D01*
G01X1670000Y870000D02*
X1719600D01*
X1745000Y895400D01*
Y930000D01*
G01X2110000Y1130000D02*
X2080000Y1160000D01*
X1950000D01*
X1810000Y1300000D01*
Y1490000D01*
G01X2140000Y1210000D02*
X1960400D01*
X1875000Y1295400D01*
Y1490000D01*
G01X1745000D02*
Y1514600D01*
X1719600Y1540000D01*
X1670000D01*
G01X2410000Y263800D02*
X2560000D01*
G01X2410000Y160000D02*
Y263800D01*
G01X2260000Y160000D02*
Y263800D01*
G01X2540000Y160000D02*
X2606200D01*
X2710000Y263800D01*
G01X2253690Y923500D02*
X2287300D01*
X2410000Y1046200D01*
G01X2200000Y1150000D02*
X2203500Y1153500D01*
G01X2253690Y923500D02*
X2250190Y920000D01*
X2220000D01*
G01D02*
X2223500Y923500D01*
G01D02*
X2253690D01*
G01X2890000Y441600D02*
X2735400D01*
X2710000Y416200D01*
G01X3010000Y1303800D02*
X3174600D01*
X3190000Y1288400D01*
G54D14*
X783800Y230000D03*
X936200D03*
X783800Y630000D03*
X936200D03*
X783800Y480000D03*
X936200D03*
X1103800Y1270000D03*
X783800Y1050000D03*
X936200D03*
X783800Y1270000D03*
X936200D03*
X1103800Y1470000D03*
X783800D03*
X936200D03*
X1403800Y1270000D03*
X1556200D03*
X1256200D03*
X1403800Y970000D03*
X1556200D03*
X1403800Y1120000D03*
X1556200D03*
X1403800Y1470000D03*
X1556200D03*
X1256200D03*
G54D24*
G01X250000Y0D02*
X3600000D01*
G03X3900000Y300000I0J300000D01*
G01Y1420000D01*
G03X3600000Y1720000I-300000J0D01*
G01X250000D01*
G03X0Y1470000I0J-250000D01*
G01Y250000D01*
G03X250000Y0I250000J0D01*
G01X335000Y635000D02*
G03I-75000J0D01*
G01Y1085000D02*
G03I-75000J0D01*
G01X340000Y635000D02*
G03I-80000J0D01*
G01Y1085000D02*
G03I-80000J0D01*
G54D15*
X1490000Y253800D03*
X1640000Y766200D03*
Y613800D03*
X1490000Y766200D03*
Y613800D03*
Y406200D03*
X2100000Y263800D03*
X1890000Y756200D03*
Y603800D03*
X2100000Y416200D03*
X2260000Y263800D03*
X2410000D03*
X2710000D03*
X2560000D03*
X2260000Y416200D03*
X2410000D03*
X2710000D03*
X2560000D03*
X2410000Y1046200D03*
Y893800D03*
X3010000Y1303800D03*
Y1456200D03*
G54D25*
G01X1100000Y330000D02*
X1090000Y340000D01*
G01X940000D02*
X730000D01*
X670000Y400000D01*
Y770000D01*
X936200Y1036200D01*
Y1050000D01*
G01X1145880Y330000D02*
X1100000D01*
G01X1060000Y1050000D02*
X936200D01*
G01X1640000Y766200D02*
X1613800D01*
X1550000Y830000D01*
G01D02*
Y826200D01*
X1490000Y766200D01*
G01X1550000Y830000D02*
Y880000D01*
G01X1130000Y640000D02*
X1270000Y780000D01*
X1476200D01*
X1490000Y766200D01*
G01X1556200Y970000D02*
X1550000Y963800D01*
Y880000D01*
G01X2270000Y750000D02*
X2050000D01*
X2005000Y795000D01*
Y930000D01*
G01X2270000Y1000000D02*
X2280000Y1010000D01*
Y1250000D01*
X2190000Y1340000D01*
X2055000D01*
X2005000Y1390000D01*
Y1490000D01*
G01X2260000Y416200D02*
X2410000D01*
G01Y893800D02*
Y416200D01*
G01X2270000Y850000D02*
X2366200D01*
X2410000Y893800D01*
G01X2440000Y1530000D02*
Y1190000D01*
X2520000Y1110000D01*
Y980000D01*
X2433800Y893800D01*
X2410000D01*
G01X3010000Y1456200D02*
Y1460000D01*
X2940000Y1530000D01*
X2440000D01*
G01X3050000Y1110000D02*
X2820800D01*
X2770000Y1160800D01*
Y1230000D01*
G01X3270000Y860000D02*
Y470000D01*
G54D16*
X1680000Y250000D03*
Y410000D03*
X1900000Y250000D03*
Y410000D03*
G54D17*
X1325000Y214600D03*
X1230000D03*
X1135000D03*
Y485400D03*
X1325000D03*
G54D18*
X2135000Y930000D03*
X2070000D03*
X2005000D03*
X1940000D03*
X1875000D03*
X1810000D03*
X1745000D03*
Y1490000D03*
X1810000D03*
X1875000D03*
X1940000D03*
X2005000D03*
X2070000D03*
X2135000D03*
G54D19*
X2890000Y238400D03*
Y441600D03*
X3190000Y1288400D03*
Y1491600D03*
M02*
