M48
METRIC,TZ
T01C.3048
T02C.9
T03C2.3
;LEADER: 12 
;HEADER: 
;CODE  : ASCII 
;FILE  : USBAUDIO_TEST_V10A-1-2.drl for board H:/GitHub/USBAudio/Hardware/USBAUDIO_TEST_V10A/PCB/#Taaaaak09076.tmp ... layers TOP and BOTTOM
;T01 Holesize 1. = 0.304800 Tolerance = +0.000000/-0.000000 PLATED MM Quantity = 83
;T02 Holesize 2. = 0.900000 Tolerance = +0.000000/-0.000000 PLATED MM Quantity = 4
;T03 Holesize 3. = 2.300000 Tolerance = +0.000000/-0.000000 PLATED MM Quantity = 2
%
G90
T01
X430000Y50000
X540000Y120000
X540000Y220000
X540000Y320000
X640000Y50000
X640000Y220000
X840000Y50000
X1040000Y50000
X1050000Y180000
X1050000Y240000
X1090000Y340000
X1240000Y50000
X1440000Y50000
X1650000Y50000
X2260000Y160000
X2410000Y160000
X2540000Y160000
X2620000Y50000
X2860000Y50000
X3110000Y50000
X3350000Y50000
X3620000Y50000
X3660000Y280000
X3840000Y280000
X3840000Y960000
X3840000Y730000
X3840000Y510000
X3660000Y960000
X3660000Y730000
X3660000Y510000
X3270000Y860000
X3170000Y980000
X3170000Y730000
X2940000Y980000
X2940000Y650000
X2730000Y850000
X2580000Y850000
X2270000Y1000000
X2270000Y850000
X2270000Y750000
X2270000Y640000
X2270000Y540000
X1986200Y603800
X1788400Y600000
X1720000Y520000
X1669120Y950000
X1670000Y870000
X1560000Y510000
X1550000Y880000
X1390000Y690000
X1390000Y610000
X1060000Y760000
X1060000Y660000
X650000Y1396340
X650000Y1470000
X1060000Y1050000
X1070000Y1150000
X1260000Y1150000
X2110000Y1130000
X2140000Y1210000
X2170000Y1060000
X2530000Y1250000
X2530000Y1420000
X3050000Y1110000
X3660000Y1180000
X3660000Y1410000
X3840000Y1180000
X3840000Y1410000
X3690000Y1610000
X3490000Y1660000
X3260000Y1660000
X3040000Y1660000
X2810000Y1660000
X2540000Y1660000
X2440000Y1530000
X2310000Y1660000
X1670000Y1540000
X1300000Y1660000
X1090000Y1660000
X890000Y1660000
X680000Y1660000
X530000Y1530000
X450000Y1660000
T02
X530000Y510000
X530000Y760000
X530000Y960000
X530000Y1210000
T03
X260000Y260000
X260000Y1460000
M30
